<svg width="375" height="667" viewBox="0 0 375 667" fill="none" xmlns="http://www.w3.org/2000/svg">
<g clip-path="url(#clip0)">
<rect width="375" height="667" fill="#C3EFDB"/>
<ellipse rx="206.559" ry="103.017" transform="matrix(0.946737 -0.322007 0.352008 0.935997 150.82 19.9103)" fill="#41B883" fill-opacity="0.5"/>
<ellipse rx="83.7553" ry="113.041" transform="matrix(0.846604 -0.532223 0.570766 0.821113 341.427 56.0038)" fill="#41B883" fill-opacity="0.2"/>
<path d="M184.064 270.048H180.656L179.024 266.4C177.424 267.872 175.824 268.928 174.224 269.568C172.624 270.208 170.736 270.528 168.56 270.528C163.568 270.528 159.728 268.864 157.04 265.536C154.352 262.176 153.008 257.92 153.008 252.768C153.008 247.168 154.56 242.688 157.664 239.328C160.768 235.968 165.072 234.288 170.576 234.288C172.752 234.288 175.024 234.608 177.392 235.248C179.76 235.888 181.6 236.832 182.912 238.08L179.408 242.016C177.712 240.768 176.288 239.92 175.136 239.472C174.016 239.024 172.496 238.8 170.576 238.8C168.048 238.8 165.952 239.472 164.288 240.816C162.656 242.128 161.52 243.76 160.88 245.712C160.272 247.632 159.968 249.84 159.968 252.336C159.968 253.904 160.144 255.456 160.496 256.992C160.88 258.496 161.424 259.936 162.128 261.312C162.864 262.688 163.888 263.808 165.2 264.672C166.512 265.504 168 265.92 169.664 265.92C171.936 265.92 173.76 265.248 175.136 263.904C176.544 262.56 177.248 260.752 177.248 258.48V255.504H169.952L170.576 251.28H183.92C183.856 255.184 183.824 258.128 183.824 260.112C183.824 263.984 183.904 267.296 184.064 270.048ZM202.834 245.664L201.874 251.376H201.682C200.274 251.376 199.042 251.776 197.986 252.576C196.962 253.344 195.954 254.416 194.962 255.792V270H189.202V252.576C189.202 249.664 188.69 247.52 187.666 246.144L193.762 245.664C194.466 247.264 194.85 248.944 194.914 250.704C195.746 249.296 196.882 248.112 198.322 247.152C199.794 246.16 201.298 245.664 202.834 245.664ZM224.571 255.888C224.571 257.808 223.755 258.768 222.123 258.768H209.547C209.547 260.816 210.091 262.656 211.179 264.288C212.267 265.888 213.787 266.688 215.739 266.688C216.731 266.688 217.755 266.448 218.811 265.968C219.899 265.488 220.811 264.88 221.547 264.144L223.995 267.984C223.003 268.816 221.691 269.456 220.059 269.904C218.459 270.32 216.923 270.528 215.451 270.528C211.739 270.528 208.811 269.424 206.667 267.216C204.523 264.976 203.451 261.984 203.451 258.24C203.451 254.688 204.443 251.68 206.427 249.216C208.443 246.72 211.179 245.472 214.635 245.472C217.771 245.472 220.203 246.416 221.931 248.304C223.691 250.192 224.571 252.72 224.571 255.888ZM218.571 253.92C218.571 252.608 218.235 251.536 217.563 250.704C216.891 249.84 215.931 249.408 214.683 249.408C213.403 249.408 212.267 250 211.275 251.184C210.283 252.368 209.755 253.632 209.691 254.976H217.755C218.299 254.976 218.571 254.624 218.571 253.92ZM248.29 255.888C248.29 257.808 247.474 258.768 245.842 258.768H233.266C233.266 260.816 233.81 262.656 234.898 264.288C235.986 265.888 237.506 266.688 239.458 266.688C240.45 266.688 241.474 266.448 242.53 265.968C243.618 265.488 244.53 264.88 245.266 264.144L247.714 267.984C246.722 268.816 245.41 269.456 243.778 269.904C242.178 270.32 240.642 270.528 239.17 270.528C235.458 270.528 232.53 269.424 230.386 267.216C228.242 264.976 227.17 261.984 227.17 258.24C227.17 254.688 228.162 251.68 230.146 249.216C232.162 246.72 234.898 245.472 238.354 245.472C241.49 245.472 243.922 246.416 245.65 248.304C247.41 250.192 248.29 252.72 248.29 255.888ZM242.29 253.92C242.29 252.608 241.954 251.536 241.282 250.704C240.61 249.84 239.65 249.408 238.402 249.408C237.122 249.408 235.986 250 234.994 251.184C234.002 252.368 233.474 253.632 233.41 254.976H241.474C242.018 254.976 242.29 254.624 242.29 253.92ZM272.969 270H267.161V254.448C267.161 253.552 267.113 252.832 267.017 252.288C266.921 251.712 266.633 251.2 266.153 250.752C265.673 250.272 265.001 250.032 264.137 250.032C263.433 250.032 262.521 250.336 261.401 250.944C260.313 251.52 259.497 252.096 258.953 252.672V270H253.193V252.912C253.193 249.712 252.697 247.52 251.705 246.336L257.753 245.616C258.137 246.448 258.409 247.472 258.569 248.688C260.937 246.544 263.369 245.472 265.865 245.472C268.457 245.472 270.281 246.192 271.337 247.632C272.425 249.072 272.969 251.152 272.969 253.872V270Z" fill="#3C8272"/>
<path d="M214.496 290.072C214.496 291.448 214.176 292.696 213.536 293.816C212.896 294.904 212.032 295.8 210.944 296.504C209.856 297.208 208.656 297.656 207.344 297.848C208.912 298.104 210.352 298.664 211.664 299.528C213.008 300.36 214.08 301.432 214.88 302.744C215.712 304.056 216.128 305.56 216.128 307.256C216.128 309.048 215.76 310.568 215.024 311.816C214.32 313.064 213.36 314.072 212.144 314.84C210.928 315.608 209.568 316.168 208.064 316.52C206.56 316.84 205.04 317 203.504 317H191.216V284.792C191.216 284.76 191.152 284.52 191.024 284.072C190.928 283.624 190.832 283.16 190.736 282.68C190.64 282.2 190.576 281.928 190.544 281.864H203.024C204.4 281.864 205.76 281.992 207.104 282.248C208.48 282.472 209.712 282.888 210.8 283.496C211.92 284.072 212.816 284.904 213.488 285.992C214.16 287.048 214.496 288.408 214.496 290.072ZM207.536 290.984C207.536 289.448 207.072 288.344 206.144 287.672C205.216 286.968 204.048 286.616 202.64 286.616H197.84V295.592H202.784C204.128 295.592 205.248 295.176 206.144 294.344C207.072 293.48 207.536 292.36 207.536 290.984ZM209.168 306.488C209.168 305.048 208.8 303.88 208.064 302.984C207.328 302.056 206.384 301.384 205.232 300.968C204.08 300.552 202.864 300.344 201.584 300.344H197.84V312.248H203.072C204.864 312.248 206.32 311.752 207.44 310.76C208.592 309.736 209.168 308.312 209.168 306.488ZM230.204 292.472C232.412 292.472 234.22 292.952 235.628 293.912C237.068 294.872 238.124 296.12 238.796 297.656C239.5 299.16 239.852 300.776 239.852 302.504C239.852 303.624 239.708 304.712 239.42 305.768H224.828C224.828 308.328 225.436 310.296 226.652 311.672C227.868 313.016 229.452 313.688 231.404 313.688C232.332 313.688 233.324 313.528 234.38 313.208C235.468 312.888 236.588 312.392 237.74 311.72L239.276 314.984C238.188 315.848 236.812 316.488 235.148 316.904C233.516 317.32 232.044 317.528 230.732 317.528C228.236 317.528 226.092 317.016 224.3 315.992C222.508 314.968 221.132 313.544 220.172 311.72C219.212 309.864 218.732 307.704 218.732 305.24C218.732 303 219.18 300.92 220.076 299C221.004 297.048 222.316 295.48 224.012 294.296C225.74 293.08 227.804 292.472 230.204 292.472ZM229.964 296.408C228.908 296.408 228.012 296.696 227.276 297.272C226.572 297.848 226.028 298.568 225.644 299.432C225.26 300.296 225.036 301.144 224.972 301.976H233.852C234.012 301.048 233.964 300.168 233.708 299.336C233.452 298.472 233.004 297.768 232.364 297.224C231.724 296.68 230.924 296.408 229.964 296.408ZM253.395 292.568C255.955 292.568 257.923 293.224 259.299 294.536C260.707 295.816 261.411 297.752 261.411 300.344V310.856C261.411 311.784 261.555 312.408 261.843 312.728C262.131 313.048 262.499 313.208 262.947 313.208C263.523 313.208 264.147 313.08 264.819 312.824L265.731 316.088C265.027 316.472 264.227 316.776 263.331 317C262.435 317.256 261.619 317.384 260.883 317.384C259.731 317.384 258.803 317.144 258.099 316.664C257.395 316.184 256.899 315.352 256.611 314.168C255.715 315.416 254.659 316.296 253.443 316.808C252.259 317.288 250.915 317.528 249.411 317.528C247.555 317.528 245.955 317 244.611 315.944C243.299 314.856 242.643 313.336 242.643 311.384C242.643 309.656 243.043 308.248 243.843 307.16C244.675 306.04 245.747 305.192 247.059 304.616C248.371 304.008 249.779 303.592 251.283 303.368C252.819 303.144 254.275 303.032 255.651 303.032V299.912C255.651 298.632 255.379 297.752 254.835 297.272C254.291 296.792 253.411 296.552 252.195 296.552C251.107 296.552 250.019 296.856 248.931 297.464C247.843 298.072 246.883 298.696 246.051 299.336L243.699 295.544C246.611 293.56 249.843 292.568 253.395 292.568ZM255.651 306.968C254.979 306.968 254.243 307 253.443 307.064C252.643 307.128 251.875 307.288 251.139 307.544C250.403 307.8 249.795 308.184 249.315 308.696C248.867 309.208 248.643 309.912 248.643 310.808C248.643 311.544 248.931 312.12 249.507 312.536C250.115 312.92 250.755 313.112 251.427 313.112C252.323 313.112 253.075 312.856 253.683 312.344C254.323 311.832 254.803 311.192 255.123 310.424C255.475 309.624 255.651 308.84 255.651 308.072V306.968ZM273.034 292.616C273.258 293.096 273.434 293.608 273.562 294.152C273.69 294.664 273.786 295.176 273.85 295.688C274.81 294.824 275.93 294.072 277.21 293.432C278.522 292.792 279.834 292.472 281.146 292.472C283.002 292.472 284.442 292.824 285.466 293.528C286.49 294.232 287.21 295.224 287.626 296.504C288.042 297.752 288.25 299.208 288.25 300.872V317H282.442V301.448C282.442 300.712 282.378 300.008 282.25 299.336C282.154 298.664 281.882 298.12 281.434 297.704C281.018 297.256 280.346 297.032 279.418 297.032C278.938 297.032 278.346 297.176 277.642 297.464C276.97 297.752 276.314 298.104 275.674 298.52C275.066 298.904 274.586 299.288 274.234 299.672V317H268.474V299.912C268.474 299.336 268.426 298.632 268.33 297.8C268.266 296.936 268.122 296.088 267.898 295.256C267.674 294.424 267.37 293.784 266.986 293.336L273.034 292.616Z" fill="#3C8272"/>
<path d="M189.375 196.228C141.392 173.066 123.848 199.56 118.2 214.072C103.123 189.58 79.1175 180.487 57.3228 176.769C45.9119 174.81 28.7956 167.418 31.2347 169.306C33.6738 171.193 32.875 188.365 38.7516 204.564C47.4666 228.77 93.5523 226.626 113.692 233.36C127.043 237.821 122.436 254.306 118.257 267.932C117.515 267.446 116.83 266.945 116.06 266.502C108.37 260.965 102.179 253.594 98.0453 245.055C96.4463 241.715 94.0186 238.842 90.9947 236.711C87.9707 234.58 84.4518 233.263 80.7746 232.885C77.0975 232.508 73.3853 233.083 69.9933 234.555C66.6014 236.028 63.6433 238.349 61.4022 241.295C60.1753 243.131 59.1246 245.08 58.2642 247.114C56.5874 251.108 55.6683 255.38 55.5541 259.711V259.811C55.5541 260.154 55.5541 260.497 55.5541 260.84V260.969C55.5419 268.961 57.2191 276.865 60.475 284.16C67.286 299.453 78.1368 312.589 91.8549 322.149L92.0546 322.307C93.6949 323.436 95.3637 324.523 97.0754 325.552L97.2608 325.667C107.106 331.238 118.389 333.728 129.658 332.816C140.927 331.904 151.666 327.631 160.491 320.548L161.789 319.461C165.089 316.605 167.823 313.152 169.848 309.281C169.919 309.138 170.005 308.995 170.076 308.838C170.148 308.681 170.276 308.452 170.376 308.237C170.476 308.023 170.533 307.923 170.604 307.766C170.675 307.608 170.79 307.351 170.875 307.151C172.69 302.845 173.066 298.066 171.947 293.528C170.829 288.99 168.276 284.936 164.67 281.972C160.66 278.67 155.595 276.929 150.407 277.068H149.123C142.557 277.078 136.04 275.936 129.867 273.694C131.508 260.826 130.295 239.751 123.848 224.853C123.492 224.038 123.121 223.223 122.75 222.436C149.637 222.837 243.748 222.479 189.375 196.228ZM126.758 328.397C138.4 328.415 149.696 324.434 158.765 317.116L159.479 316.53C158.994 317.002 158.509 317.46 158.052 317.96C157.596 318.46 157.268 318.618 156.868 318.932C148.888 325.346 139.175 329.216 128.98 330.044C118.786 330.873 108.577 328.621 99.6713 323.579L99.4859 323.465C97.9454 322.535 96.4335 321.563 94.9501 320.534L94.7647 320.391C82.3785 311.747 72.5755 299.884 66.4087 286.076C63.458 279.474 61.9364 272.321 61.9442 265.087V264.972C61.9442 264.658 61.9442 264.357 61.9442 264.043C61.9375 264.015 61.9375 263.985 61.9442 263.957C62.0366 260.025 62.864 256.145 64.3832 252.519C65.1651 250.678 66.1203 248.916 67.236 247.257C68.2556 245.909 69.4445 244.698 70.7733 243.654C70.2068 244.239 69.6734 244.854 69.1758 245.499C68.0635 247.165 67.1084 248.931 66.3231 250.775C64.7989 254.4 63.9667 258.28 63.8698 262.213V262.313C63.8698 262.627 63.8698 262.928 63.8698 263.242V263.357C63.8575 270.59 65.3742 277.743 68.32 284.346C74.4918 298.151 84.2937 310.012 96.676 318.661L96.8757 318.804C98.302 319.819 99.8568 320.805 101.411 321.735L101.583 321.849C109.27 326.173 117.943 328.429 126.758 328.397Z" fill="url(#paint0_linear)"/>
<path fill-rule="evenodd" clip-rule="evenodd" d="M39.0185 135.285C43.8719 82.4413 88.5261 3.51684 159.586 -69.6284C159.596 -69.6383 159.605 -69.6482 159.615 -69.6581C253.231 -85.4019 333.149 -66.9337 347.093 -22.859C363.068 27.6369 286.395 92.6222 175.839 122.29C126.265 135.593 78.2948 139.536 39.0185 135.285Z" fill="#41B883"/>
<path d="M38 134.5C60.9091 107.344 133.691 42.0444 235 -6" stroke="#82D3AF" stroke-width="3"/>
<path fill-rule="evenodd" clip-rule="evenodd" d="M81.3869 94.0914C103.996 91.3241 125.314 88.7149 136.186 63.8879C144.267 45.4339 134.883 27.4088 125.656 9.68583C120.415 -0.381393 115.224 -10.3511 113.314 -20.2466C111.302 -30.6752 110.773 -40.859 110.275 -50.4317C109.024 -74.5276 107.974 -94.7521 83.9664 -105.265C30.7206 -128.582 -13.3478 -25.5778 -43.221 44.2468C-46.1838 51.1721 -49.007 57.771 -51.6857 63.8878C-81.3723 131.679 -11.8329 154.279 16.3143 143.253C30.5745 137.667 31.6302 129.591 32.6713 121.627C33.6852 113.87 34.6853 106.22 47.8531 101.078C52.6312 99.2117 57.5681 97.8959 62.5652 96.889L61.8318 96.7806C63.9139 82.6953 60.8826 66.9514 56.1652 52.9061C51.4541 38.8799 45.1132 26.6991 40.7338 19.8042L43.2662 18.1957C47.7683 25.284 54.2168 37.683 59.0091 51.9509C63.7107 65.9491 66.8681 81.8925 64.9098 96.4391C70.3915 95.4372 75.9269 94.7597 81.3869 94.0914Z" fill="#3B8171"/>
<path d="M13 75C20.2667 85.577 33.9282 112.185 30.4401 134" stroke="#82D3AF" stroke-width="3"/>
<path d="M-19.5 142.5C4.33333 89 62.2 -27.6 103 -66" stroke="#82D3AF" stroke-width="3"/>
<path d="M25.324 584H23.896L24.624 574.564H26.332L27.592 578.008C27.816 578.596 28.04 579.221 28.264 579.884C28.488 580.537 28.656 581.046 28.768 581.41L28.95 581.956C29.3793 580.687 29.8507 579.371 30.364 578.008L31.68 574.564H33.388L34.256 584H32.828L32.492 580.304L32.198 576.524C31.778 577.709 31.3207 578.969 30.826 580.304L29.51 583.818H28.376L27.102 580.304L25.828 576.58C25.828 576.991 25.7533 578.232 25.604 580.304L25.324 584ZM38.4163 582.978C38.8643 582.978 39.2143 582.857 39.4663 582.614C39.7276 582.362 39.8583 582.035 39.8583 581.634V580.836H38.7943C38.2716 580.836 37.875 580.939 37.6043 581.144C37.343 581.349 37.2123 581.611 37.2123 581.928C37.2123 582.255 37.315 582.511 37.5203 582.698C37.7256 582.885 38.0243 582.978 38.4163 582.978ZM39.9003 583.16C39.5363 583.757 38.897 584.056 37.9823 584.056C37.3103 584.056 36.769 583.865 36.3583 583.482C35.957 583.09 35.7563 582.595 35.7563 581.998C35.7563 581.317 36.013 580.789 36.5263 580.416C37.0396 580.033 37.7583 579.842 38.6823 579.842H39.8583V579.436C39.8583 578.951 39.7416 578.587 39.5083 578.344C39.275 578.092 38.8876 577.966 38.3463 577.966C37.5903 577.966 36.9043 578.176 36.2883 578.596V577.266C36.839 576.949 37.567 576.79 38.4723 576.79C40.3296 576.79 41.2583 577.691 41.2583 579.492V584H39.9003V583.16ZM44.4786 584H43.1066V574.2H44.4786V584ZM46.1166 580.29L48.9026 584H47.2646L44.5346 580.29L47.2086 576.902H48.8186L46.1166 580.29ZM55.3986 583.622C54.876 583.921 54.1853 584.07 53.3266 584.07C52.2253 584.07 51.348 583.739 50.6946 583.076C50.0413 582.413 49.7146 581.545 49.7146 580.472C49.7146 579.333 50.0133 578.442 50.6106 577.798C51.208 577.145 51.9686 576.818 52.8926 576.818C53.798 576.818 54.5166 577.103 55.0486 577.672C55.5806 578.232 55.8466 579.044 55.8466 580.108C55.8466 580.397 55.8186 580.701 55.7626 581.018H51.1006C51.194 581.634 51.4553 582.105 51.8846 582.432C52.314 582.759 52.8553 582.922 53.5086 582.922C54.2646 582.922 54.8946 582.745 55.3986 582.39V583.622ZM52.9206 577.952C52.454 577.952 52.0526 578.125 51.7166 578.47C51.3806 578.806 51.1706 579.296 51.0866 579.94H54.5166V579.688C54.498 579.156 54.3533 578.736 54.0826 578.428C53.812 578.111 53.4246 577.952 52.9206 577.952ZM63.2034 582.978C63.6514 582.978 64.0014 582.857 64.2534 582.614C64.5147 582.362 64.6454 582.035 64.6454 581.634V580.836H63.5814C63.0587 580.836 62.6621 580.939 62.3914 581.144C62.1301 581.349 61.9994 581.611 61.9994 581.928C61.9994 582.255 62.1021 582.511 62.3074 582.698C62.5127 582.885 62.8114 582.978 63.2034 582.978ZM64.6874 583.16C64.3234 583.757 63.6841 584.056 62.7694 584.056C62.0974 584.056 61.5561 583.865 61.1454 583.482C60.7441 583.09 60.5434 582.595 60.5434 581.998C60.5434 581.317 60.8001 580.789 61.3134 580.416C61.8267 580.033 62.5454 579.842 63.4694 579.842H64.6454V579.436C64.6454 578.951 64.5287 578.587 64.2954 578.344C64.0621 578.092 63.6747 577.966 63.1334 577.966C62.3774 577.966 61.6914 578.176 61.0754 578.596V577.266C61.6261 576.949 62.3541 576.79 63.2594 576.79C65.1167 576.79 66.0454 577.691 66.0454 579.492V584H64.6874V583.16ZM74.363 584H71.395V574.564H74.335C75.735 574.564 76.883 574.998 77.779 575.866C78.675 576.734 79.123 577.84 79.123 579.184C79.123 580.584 78.6984 581.737 77.849 582.642C77.009 583.547 75.847 584 74.363 584ZM74.307 575.796H72.865V582.782H74.349C75.4224 582.782 76.239 582.446 76.799 581.774C77.359 581.102 77.639 580.239 77.639 579.184C77.639 578.213 77.3357 577.406 76.729 576.762C76.1224 576.118 75.315 575.796 74.307 575.796ZM82.1189 584H80.7329V576.902H82.1189V584ZM82.2869 574.732C82.2869 574.965 82.2029 575.166 82.0349 575.334C81.8669 575.502 81.6616 575.586 81.4189 575.586C81.1763 575.586 80.9709 575.507 80.8029 575.348C80.6443 575.18 80.5649 574.975 80.5649 574.732C80.5649 574.489 80.6443 574.284 80.8029 574.116C80.9709 573.948 81.1763 573.864 81.4189 573.864C81.6616 573.864 81.8669 573.948 82.0349 574.116C82.2029 574.284 82.2869 574.489 82.2869 574.732ZM87.5666 577.966H86.0686V584H84.6966V577.966H83.5626V576.902H84.6966V576.356C84.6966 575.619 84.8926 575.04 85.2846 574.62C85.6859 574.191 86.2459 573.976 86.9646 573.976C87.2259 573.976 87.4919 574.013 87.7626 574.088V575.292C87.5479 575.199 87.3239 575.152 87.0906 575.152C86.4092 575.152 86.0686 575.558 86.0686 576.37V576.902H87.5666V577.966ZM92.2424 577.966H90.7444V584H89.3724V577.966H88.2384V576.902H89.3724V576.356C89.3724 575.619 89.5684 575.04 89.9604 574.62C90.3617 574.191 90.9217 573.976 91.6404 573.976C91.9017 573.976 92.1677 574.013 92.4384 574.088V575.292C92.2237 575.199 91.9997 575.152 91.7664 575.152C91.085 575.152 90.7444 575.558 90.7444 576.37V576.902H92.2424V577.966ZM98.7521 583.622C98.2295 583.921 97.5388 584.07 96.6801 584.07C95.5788 584.07 94.7015 583.739 94.0481 583.076C93.3948 582.413 93.0681 581.545 93.0681 580.472C93.0681 579.333 93.3668 578.442 93.9641 577.798C94.5615 577.145 95.3221 576.818 96.2461 576.818C97.1515 576.818 97.8701 577.103 98.4021 577.672C98.9341 578.232 99.2001 579.044 99.2001 580.108C99.2001 580.397 99.1721 580.701 99.1161 581.018H94.4541C94.5475 581.634 94.8088 582.105 95.2381 582.432C95.6675 582.759 96.2088 582.922 96.8621 582.922C97.6181 582.922 98.2481 582.745 98.7521 582.39V583.622ZM96.2741 577.952C95.8075 577.952 95.4061 578.125 95.0701 578.47C94.7341 578.806 94.5241 579.296 94.4401 579.94H97.8701V579.688C97.8515 579.156 97.7068 578.736 97.4361 578.428C97.1655 578.111 96.7781 577.952 96.2741 577.952ZM102.188 584H100.816V576.902H102.188V578.148C102.533 577.271 103.154 576.832 104.05 576.832C104.18 576.832 104.325 576.846 104.484 576.874V578.218C104.288 578.134 104.068 578.092 103.826 578.092C103.35 578.092 102.958 578.302 102.65 578.722C102.342 579.142 102.188 579.641 102.188 580.22V584ZM110.852 583.622C110.329 583.921 109.638 584.07 108.78 584.07C107.678 584.07 106.801 583.739 106.148 583.076C105.494 582.413 105.168 581.545 105.168 580.472C105.168 579.333 105.466 578.442 106.064 577.798C106.661 577.145 107.422 576.818 108.346 576.818C109.251 576.818 109.97 577.103 110.502 577.672C111.034 578.232 111.3 579.044 111.3 580.108C111.3 580.397 111.272 580.701 111.216 581.018H106.554C106.647 581.634 106.908 582.105 107.338 582.432C107.767 582.759 108.308 582.922 108.962 582.922C109.718 582.922 110.348 582.745 110.852 582.39V583.622ZM108.374 577.952C107.907 577.952 107.506 578.125 107.17 578.47C106.834 578.806 106.624 579.296 106.54 579.94H109.97V579.688C109.951 579.156 109.806 578.736 109.536 578.428C109.265 578.111 108.878 577.952 108.374 577.952ZM118.781 584H117.409V579.52C117.409 579.025 117.283 578.647 117.031 578.386C116.789 578.125 116.462 577.994 116.051 577.994C115.566 577.994 115.151 578.185 114.805 578.568C114.46 578.941 114.287 579.469 114.287 580.15V584H112.915V576.902H114.287V578.12C114.707 577.243 115.445 576.804 116.499 576.804C117.199 576.804 117.755 577.019 118.165 577.448C118.576 577.877 118.781 578.461 118.781 579.198V584ZM125.638 583.72C125.181 584 124.597 584.14 123.888 584.14C122.777 584.14 121.891 583.79 121.228 583.09C120.565 582.39 120.234 581.517 120.234 580.472C120.234 579.455 120.565 578.587 121.228 577.868C121.9 577.14 122.805 576.776 123.944 576.776C124.56 576.776 125.125 576.907 125.638 577.168V578.428C125.181 578.139 124.663 577.994 124.084 577.994C123.347 577.994 122.754 578.227 122.306 578.694C121.867 579.161 121.648 579.758 121.648 580.486C121.667 581.205 121.886 581.797 122.306 582.264C122.726 582.721 123.314 582.95 124.07 582.95C124.63 582.95 125.153 582.796 125.638 582.488V583.72ZM132.508 583.622C131.985 583.921 131.295 584.07 130.436 584.07C129.335 584.07 128.457 583.739 127.804 583.076C127.151 582.413 126.824 581.545 126.824 580.472C126.824 579.333 127.123 578.442 127.72 577.798C128.317 577.145 129.078 576.818 130.002 576.818C130.907 576.818 131.626 577.103 132.158 577.672C132.69 578.232 132.956 579.044 132.956 580.108C132.956 580.397 132.928 580.701 132.872 581.018H128.21C128.303 581.634 128.565 582.105 128.994 582.432C129.423 582.759 129.965 582.922 130.618 582.922C131.374 582.922 132.004 582.745 132.508 582.39V583.622ZM130.03 577.952C129.563 577.952 129.162 578.125 128.826 578.47C128.49 578.806 128.28 579.296 128.196 579.94H131.626V579.688C131.607 579.156 131.463 578.736 131.192 578.428C130.921 578.111 130.534 577.952 130.03 577.952ZM143.743 575.768H141.265V584H139.823V575.768H137.359V574.564H143.743V575.768ZM150.491 577.84C151.079 578.521 151.373 579.394 151.373 580.458C151.373 581.522 151.069 582.399 150.463 583.09C149.865 583.781 149.039 584.126 147.985 584.126C146.939 584.126 146.118 583.785 145.521 583.104C144.923 582.423 144.625 581.559 144.625 580.514C144.625 579.45 144.933 578.568 145.549 577.868C146.165 577.159 146.977 576.804 147.985 576.804C149.067 576.804 149.903 577.149 150.491 577.84ZM146.053 580.472C146.053 581.172 146.225 581.765 146.571 582.25C146.916 582.726 147.387 582.964 147.985 582.964C148.619 582.964 149.1 582.731 149.427 582.264C149.763 581.797 149.931 581.205 149.931 580.486C149.931 579.749 149.772 579.147 149.455 578.68C149.137 578.204 148.643 577.966 147.971 577.966C147.364 577.966 146.893 578.209 146.557 578.694C146.221 579.17 146.053 579.763 146.053 580.472ZM153.941 580.514C153.941 581.223 154.114 581.797 154.459 582.236C154.814 582.675 155.257 582.894 155.789 582.894C156.33 582.894 156.788 582.689 157.161 582.278C157.534 581.867 157.721 581.242 157.721 580.402C157.721 579.59 157.525 578.988 157.133 578.596C156.75 578.204 156.316 578.008 155.831 578.008C155.28 578.008 154.828 578.227 154.473 578.666C154.118 579.095 153.941 579.711 153.941 580.514ZM159.107 584H157.721V582.922C157.226 583.706 156.503 584.098 155.551 584.098C154.618 584.098 153.88 583.748 153.339 583.048C152.798 582.339 152.527 581.485 152.527 580.486C152.527 579.375 152.812 578.484 153.381 577.812C153.95 577.14 154.683 576.804 155.579 576.804C156.503 576.804 157.217 577.196 157.721 577.98V574.102H159.107V584ZM163.336 582.978C163.784 582.978 164.134 582.857 164.386 582.614C164.648 582.362 164.778 582.035 164.778 581.634V580.836H163.714C163.192 580.836 162.795 580.939 162.524 581.144C162.263 581.349 162.132 581.611 162.132 581.928C162.132 582.255 162.235 582.511 162.44 582.698C162.646 582.885 162.944 582.978 163.336 582.978ZM164.82 583.16C164.456 583.757 163.817 584.056 162.902 584.056C162.23 584.056 161.689 583.865 161.278 583.482C160.877 583.09 160.676 582.595 160.676 581.998C160.676 581.317 160.933 580.789 161.446 580.416C161.96 580.033 162.678 579.842 163.602 579.842H164.778V579.436C164.778 578.951 164.662 578.587 164.428 578.344C164.195 578.092 163.808 577.966 163.266 577.966C162.51 577.966 161.824 578.176 161.208 578.596V577.266C161.759 576.949 162.487 576.79 163.392 576.79C165.25 576.79 166.178 577.691 166.178 579.492V584H164.82V583.16ZM171.373 583.804C170.691 585.624 169.651 586.534 168.251 586.534C167.999 586.534 167.784 586.511 167.607 586.464V585.288C167.756 585.325 167.915 585.344 168.083 585.344C168.988 585.344 169.623 584.845 169.987 583.846L167.159 576.902H168.685L169.567 579.212L170.673 582.208C170.757 581.928 171.093 580.929 171.681 579.212L172.479 576.902H173.935L171.373 583.804ZM176.131 582.502C176.318 582.679 176.411 582.899 176.411 583.16C176.411 583.421 176.318 583.645 176.131 583.832C175.954 584.019 175.735 584.112 175.473 584.112C175.203 584.112 174.974 584.019 174.787 583.832C174.61 583.645 174.521 583.421 174.521 583.16C174.521 582.899 174.61 582.679 174.787 582.502C174.974 582.315 175.203 582.222 175.473 582.222C175.735 582.222 175.954 582.315 176.131 582.502Z" fill="#35495E"/>
<path d="M34.448 552.464C34.448 553.904 33.928 555.056 32.888 555.92C31.864 556.768 30.512 557.192 28.832 557.192C27.008 557.192 25.496 556.848 24.296 556.16V553.064C25.672 554.056 27.176 554.552 28.808 554.552C29.544 554.552 30.136 554.376 30.584 554.024C31.032 553.656 31.256 553.168 31.256 552.56C31.256 552.272 31.2 552.016 31.088 551.792C30.976 551.568 30.744 551.344 30.392 551.12C30.056 550.896 29.792 550.736 29.6 550.64C29.424 550.544 29.048 550.368 28.472 550.112C28.312 550.032 28.192 549.976 28.112 549.944C27.52 549.672 27.04 549.432 26.672 549.224C26.304 549 25.904 548.704 25.472 548.336C25.04 547.968 24.712 547.528 24.488 547.016C24.28 546.504 24.176 545.92 24.176 545.264C24.176 543.888 24.68 542.784 25.688 541.952C26.712 541.12 28.064 540.704 29.744 540.704C31.264 540.704 32.576 540.968 33.68 541.496V544.424C32.48 543.704 31.2 543.344 29.84 543.344C29.088 543.344 28.496 543.512 28.064 543.848C27.648 544.184 27.44 544.616 27.44 545.144C27.44 545.672 27.664 546.112 28.112 546.464C28.576 546.8 29.264 547.176 30.176 547.592C30.816 547.88 31.336 548.136 31.736 548.36C32.136 548.568 32.568 548.864 33.032 549.248C33.512 549.632 33.864 550.096 34.088 550.64C34.328 551.168 34.448 551.776 34.448 552.464ZM47.4219 557H44.5179V555.008C43.8779 556.416 42.6299 557.12 40.7739 557.12C39.5419 557.12 38.5819 556.768 37.8939 556.064C37.2059 555.36 36.8619 554.36 36.8619 553.064V544.832H39.7419V552.392C39.7419 553.16 39.9259 553.744 40.2939 554.144C40.6779 554.544 41.1979 554.744 41.8539 554.744C42.6859 554.744 43.3339 554.464 43.7979 553.904C44.2779 553.344 44.5179 552.496 44.5179 551.36V544.832H47.4219V557ZM58.4962 553.496C58.4962 554.632 58.0882 555.52 57.2722 556.16C56.4562 556.8 55.3682 557.12 54.0082 557.12C52.5042 557.12 51.2882 556.872 50.3602 556.376V553.736C51.4322 554.456 52.5922 554.816 53.8402 554.816C54.3682 554.816 54.7762 554.72 55.0642 554.528C55.3682 554.32 55.5202 554.04 55.5202 553.688C55.5202 553.48 55.4722 553.296 55.3762 553.136C55.2802 552.96 55.0962 552.792 54.8242 552.632C54.5522 552.472 54.3362 552.36 54.1762 552.296C54.0322 552.216 53.7362 552.08 53.2882 551.888C53.2402 551.872 53.2002 551.856 53.1682 551.84C53.1522 551.824 53.1202 551.808 53.0722 551.792C53.0242 551.776 52.9842 551.76 52.9522 551.744C51.1762 550.944 50.2882 549.792 50.2882 548.288C50.2882 547.168 50.7122 546.288 51.5602 545.648C52.4082 545.008 53.4722 544.688 54.7522 544.688C55.9842 544.688 57.0082 544.864 57.8242 545.216V547.76C57.0242 547.28 56.0242 547.04 54.8242 547.04C54.3282 547.04 53.9362 547.152 53.6482 547.376C53.3762 547.584 53.2402 547.856 53.2402 548.192C53.2402 548.32 53.2562 548.44 53.2882 548.552C53.3362 548.664 53.4082 548.776 53.5042 548.888C53.6162 548.984 53.7202 549.072 53.8162 549.152C53.9122 549.232 54.0482 549.32 54.2242 549.416C54.4002 549.496 54.5522 549.568 54.6802 549.632C54.8082 549.696 54.9842 549.776 55.2082 549.872C55.4322 549.968 55.6082 550.048 55.7362 550.112C56.5842 550.528 57.2562 550.992 57.7522 551.504C58.2482 552.016 58.4962 552.68 58.4962 553.496ZM67.5144 556.712C66.9544 556.984 66.2344 557.12 65.3544 557.12C62.7304 557.12 61.4184 555.792 61.4184 553.136V546.992H59.5944V544.832H61.4184V541.904H64.2984V544.832H67.3224V546.992H64.2984V553.184C64.2984 553.696 64.4344 554.088 64.7064 554.36C64.9784 554.616 65.3544 554.744 65.8344 554.744C66.4424 554.744 67.0024 554.576 67.5144 554.24V556.712ZM74.0641 554.96C74.7041 554.96 75.2001 554.776 75.5521 554.408C75.9201 554.024 76.1041 553.528 76.1041 552.92V551.768H74.6161C73.8641 551.768 73.2881 551.928 72.8881 552.248C72.4881 552.552 72.2881 552.944 72.2881 553.424C72.2881 554.448 72.8801 554.96 74.0641 554.96ZM76.2241 555.536C75.6641 556.576 74.6081 557.096 73.0561 557.096C71.9041 557.096 70.9841 556.76 70.2961 556.088C69.6241 555.416 69.2881 554.568 69.2881 553.544C69.2881 552.392 69.7201 551.488 70.5841 550.832C71.4481 550.176 72.6961 549.848 74.3281 549.848H76.1041V549.104C76.1041 548.432 75.9281 547.92 75.5761 547.568C75.2241 547.216 74.6241 547.04 73.7761 547.04C72.4801 547.04 71.2881 547.4 70.2001 548.12V545.456C71.1121 544.896 72.4241 544.616 74.1361 544.616C77.4321 544.616 79.0801 546.152 79.0801 549.224V557H76.2241V555.536ZM85.0522 557H82.1722V544.832H85.0522V557ZM85.3402 541.184C85.3402 541.68 85.1722 542.096 84.8362 542.432C84.5002 542.768 84.0922 542.936 83.6122 542.936C83.1322 542.936 82.7242 542.768 82.3882 542.432C82.0522 542.096 81.8842 541.68 81.8842 541.184C81.8842 540.704 82.0522 540.296 82.3882 539.96C82.7242 539.624 83.1322 539.456 83.6122 539.456C84.0922 539.456 84.5002 539.624 84.8362 539.96C85.1722 540.296 85.3402 540.704 85.3402 541.184ZM98.8466 557H95.9666V549.512C95.9666 548.712 95.7746 548.112 95.3906 547.712C95.0066 547.296 94.4866 547.088 93.8306 547.088C93.0786 547.088 92.4466 547.384 91.9346 547.976C91.4226 548.552 91.1666 549.384 91.1666 550.472V557H88.2866V544.832H91.1666V546.92C91.8546 545.432 93.1026 544.688 94.9106 544.688C96.1266 544.688 97.0866 545.056 97.7906 545.792C98.4946 546.528 98.8466 547.568 98.8466 548.912V557ZM106.033 554.96C106.673 554.96 107.169 554.776 107.521 554.408C107.889 554.024 108.073 553.528 108.073 552.92V551.768H106.585C105.833 551.768 105.257 551.928 104.857 552.248C104.457 552.552 104.257 552.944 104.257 553.424C104.257 554.448 104.849 554.96 106.033 554.96ZM108.193 555.536C107.633 556.576 106.577 557.096 105.025 557.096C103.873 557.096 102.953 556.76 102.265 556.088C101.593 555.416 101.257 554.568 101.257 553.544C101.257 552.392 101.689 551.488 102.553 550.832C103.417 550.176 104.665 549.848 106.297 549.848H108.073V549.104C108.073 548.432 107.897 547.92 107.545 547.568C107.193 547.216 106.593 547.04 105.745 547.04C104.449 547.04 103.257 547.4 102.169 548.12V545.456C103.081 544.896 104.393 544.616 106.105 544.616C109.401 544.616 111.049 546.152 111.049 549.224V557H108.193V555.536ZM116.949 557H114.045V540.032H116.949V546.68C117.797 545.336 119.013 544.664 120.597 544.664C122.117 544.664 123.365 545.232 124.341 546.368C125.333 547.488 125.829 549.008 125.829 550.928C125.829 552.656 125.357 554.128 124.413 555.344C123.485 556.56 122.221 557.168 120.621 557.168C119.021 557.168 117.797 556.488 116.949 555.128V557ZM116.949 550.808C116.949 552.072 117.237 553.04 117.813 553.712C118.389 554.368 119.109 554.696 119.973 554.696C120.805 554.696 121.501 554.352 122.061 553.664C122.621 552.976 122.901 552.08 122.901 550.976C122.901 549.76 122.613 548.816 122.037 548.144C121.477 547.456 120.781 547.112 119.949 547.112C119.165 547.112 118.469 547.424 117.861 548.048C117.253 548.656 116.949 549.576 116.949 550.808ZM131.294 557H128.414V540.032H131.294V557ZM143.817 556.328C142.969 556.856 141.745 557.12 140.145 557.12C138.209 557.12 136.681 556.544 135.561 555.392C134.441 554.24 133.881 552.752 133.881 550.928C133.881 548.992 134.409 547.472 135.465 546.368C136.521 545.264 137.841 544.712 139.425 544.712C141.009 544.712 142.265 545.192 143.193 546.152C144.121 547.112 144.585 548.512 144.585 550.352C144.585 550.8 144.529 551.376 144.417 552.08H136.785C136.993 552.96 137.425 553.632 138.081 554.096C138.753 554.56 139.585 554.792 140.577 554.792C141.857 554.792 142.937 554.472 143.817 553.832V556.328ZM139.497 546.968C138.809 546.968 138.209 547.224 137.697 547.736C137.201 548.232 136.881 548.96 136.737 549.92H141.849V549.56C141.817 548.776 141.601 548.152 141.201 547.688C140.817 547.208 140.249 546.968 139.497 546.968ZM162.641 557H153.305V540.824H156.329V554.312H162.641V557ZM167.81 557H164.93V544.832H167.81V557ZM168.098 541.184C168.098 541.68 167.93 542.096 167.594 542.432C167.258 542.768 166.85 542.936 166.37 542.936C165.89 542.936 165.482 542.768 165.146 542.432C164.81 542.096 164.642 541.68 164.642 541.184C164.642 540.704 164.81 540.296 165.146 539.96C165.482 539.624 165.89 539.456 166.37 539.456C166.85 539.456 167.258 539.624 167.594 539.96C167.93 540.296 168.098 540.704 168.098 541.184ZM177.308 557H174.188L169.796 544.832H172.82L174.428 549.992C174.748 551 175.02 551.904 175.244 552.704C175.468 553.488 175.612 554.024 175.676 554.312L175.748 554.744C175.908 553.848 176.364 552.264 177.116 549.992L178.796 544.832H181.772L177.308 557ZM186.63 557H183.75V544.832H186.63V557ZM186.918 541.184C186.918 541.68 186.75 542.096 186.414 542.432C186.078 542.768 185.67 542.936 185.19 542.936C184.71 542.936 184.302 542.768 183.966 542.432C183.63 542.096 183.462 541.68 183.462 541.184C183.462 540.704 183.63 540.296 183.966 539.96C184.302 539.624 184.71 539.456 185.19 539.456C185.67 539.456 186.078 539.624 186.414 539.96C186.75 540.296 186.918 540.704 186.918 541.184ZM200.425 557H197.545V549.512C197.545 548.712 197.353 548.112 196.969 547.712C196.585 547.296 196.065 547.088 195.409 547.088C194.657 547.088 194.025 547.384 193.513 547.976C193.001 548.552 192.745 549.384 192.745 550.472V557H189.865V544.832H192.745V546.92C193.433 545.432 194.681 544.688 196.489 544.688C197.705 544.688 198.665 545.056 199.369 545.792C200.073 546.528 200.425 547.568 200.425 548.912V557ZM214.163 555.896C214.163 557.816 213.603 559.256 212.483 560.216C211.379 561.192 209.971 561.68 208.259 561.68C206.659 561.68 205.259 561.392 204.059 560.816V557.888C205.147 558.656 206.451 559.04 207.971 559.04C210.179 559.04 211.283 557.984 211.283 555.872V554.816C210.547 556.016 209.395 556.616 207.827 556.616C206.467 556.616 205.299 556.12 204.323 555.128C203.363 554.12 202.883 552.664 202.883 550.76C202.883 549 203.339 547.552 204.251 546.416C205.179 545.264 206.395 544.688 207.899 544.688C209.419 544.688 210.547 545.32 211.283 546.584V544.832H214.163V555.896ZM205.883 550.76C205.883 551.896 206.131 552.768 206.627 553.376C207.123 553.968 207.755 554.264 208.523 554.264C209.307 554.264 209.963 553.96 210.491 553.352C211.019 552.728 211.283 551.92 211.283 550.928C211.283 549.632 211.027 548.68 210.515 548.072C210.003 547.464 209.355 547.16 208.571 547.16C207.739 547.16 207.083 547.488 206.603 548.144C206.123 548.784 205.883 549.656 205.883 550.76Z" fill="#35495E"/>
</g>
<defs>
<linearGradient id="paint0_linear" x1="118.499" y1="333.059" x2="118.499" y2="169.005" gradientUnits="userSpaceOnUse">
<stop stop-color="#99D3B9"/>
<stop offset="0.06" stop-color="#93D1B5"/>
<stop offset="0.13" stop-color="#83CCAB"/>
<stop offset="0.22" stop-color="#68C49A"/>
<stop offset="0.31" stop-color="#43B883"/>
<stop offset="0.39" stop-color="#42B281"/>
<stop offset="0.5" stop-color="#40A27C"/>
<stop offset="0.62" stop-color="#3D8774"/>
<stop offset="0.64" stop-color="#3C8272"/>
<stop offset="0.73" stop-color="#3C7E71"/>
<stop offset="0.83" stop-color="#3A716C"/>
<stop offset="0.93" stop-color="#385D65"/>
<stop offset="1" stop-color="#364A5E"/>
</linearGradient>
<clipPath id="clip0">
<rect width="375" height="667" fill="white"/>
</clipPath>
</defs>
</svg>
