<svg width="187" height="115" viewBox="0 0 187 115" fill="none" xmlns="http://www.w3.org/2000/svg">
<path d="M101.048 71.036H98.492L97.268 68.3C96.068 69.404 94.868 70.196 93.668 70.676C92.468 71.156 91.052 71.396 89.42 71.396C85.676 71.396 82.796 70.148 80.78 67.652C78.764 65.132 77.756 61.94 77.756 58.076C77.756 53.876 78.92 50.516 81.248 47.996C83.576 45.476 86.804 44.216 90.932 44.216C92.564 44.216 94.268 44.456 96.044 44.936C97.82 45.416 99.2 46.124 100.184 47.06L97.556 50.012C96.284 49.076 95.216 48.44 94.352 48.104C93.512 47.768 92.372 47.6 90.932 47.6C89.036 47.6 87.464 48.104 86.216 49.112C84.992 50.096 84.14 51.32 83.66 52.784C83.204 54.224 82.976 55.88 82.976 57.752C82.976 58.928 83.108 60.092 83.372 61.244C83.66 62.372 84.068 63.452 84.596 64.484C85.148 65.516 85.916 66.356 86.9 67.004C87.884 67.628 89 67.94 90.248 67.94C91.952 67.94 93.32 67.436 94.352 66.428C95.408 65.42 95.936 64.064 95.936 62.36V60.128H90.464L90.932 56.96H100.94C100.892 59.888 100.868 62.096 100.868 63.584C100.868 66.488 100.928 68.972 101.048 71.036ZM115.125 52.748L114.405 57.032H114.261C113.205 57.032 112.281 57.332 111.489 57.932C110.721 58.508 109.965 59.312 109.221 60.344V71H104.901V57.932C104.901 55.748 104.517 54.14 103.749 53.108L108.321 52.748C108.849 53.948 109.137 55.208 109.185 56.528C109.809 55.472 110.661 54.584 111.741 53.864C112.845 53.12 113.973 52.748 115.125 52.748ZM131.428 60.416C131.428 61.856 130.816 62.576 129.592 62.576H120.16C120.16 64.112 120.568 65.492 121.384 66.716C122.2 67.916 123.34 68.516 124.804 68.516C125.548 68.516 126.316 68.336 127.108 67.976C127.924 67.616 128.608 67.16 129.16 66.608L130.996 69.488C130.252 70.112 129.268 70.592 128.044 70.928C126.844 71.24 125.692 71.396 124.588 71.396C121.804 71.396 119.608 70.568 118 68.912C116.392 67.232 115.588 64.988 115.588 62.18C115.588 59.516 116.332 57.26 117.82 55.412C119.332 53.54 121.384 52.604 123.976 52.604C126.328 52.604 128.152 53.312 129.448 54.728C130.768 56.144 131.428 58.04 131.428 60.416ZM126.928 58.94C126.928 57.956 126.676 57.152 126.172 56.528C125.668 55.88 124.948 55.556 124.012 55.556C123.052 55.556 122.2 56 121.456 56.888C120.712 57.776 120.316 58.724 120.268 59.732H126.316C126.724 59.732 126.928 59.468 126.928 58.94ZM149.217 60.416C149.217 61.856 148.605 62.576 147.381 62.576H137.949C137.949 64.112 138.357 65.492 139.173 66.716C139.989 67.916 141.129 68.516 142.593 68.516C143.337 68.516 144.105 68.336 144.897 67.976C145.713 67.616 146.397 67.16 146.949 66.608L148.785 69.488C148.041 70.112 147.057 70.592 145.833 70.928C144.633 71.24 143.481 71.396 142.377 71.396C139.593 71.396 137.397 70.568 135.789 68.912C134.181 67.232 133.377 64.988 133.377 62.18C133.377 59.516 134.121 57.26 135.609 55.412C137.121 53.54 139.173 52.604 141.765 52.604C144.117 52.604 145.941 53.312 147.237 54.728C148.557 56.144 149.217 58.04 149.217 60.416ZM144.717 58.94C144.717 57.956 144.465 57.152 143.961 56.528C143.457 55.88 142.737 55.556 141.801 55.556C140.841 55.556 139.989 56 139.245 56.888C138.501 57.776 138.105 58.724 138.057 59.732H144.105C144.513 59.732 144.717 59.468 144.717 58.94ZM167.726 71H163.37V59.336C163.37 58.664 163.334 58.124 163.262 57.716C163.19 57.284 162.974 56.9 162.614 56.564C162.254 56.204 161.75 56.024 161.102 56.024C160.574 56.024 159.89 56.252 159.05 56.708C158.234 57.14 157.622 57.572 157.214 58.004V71H152.894V58.184C152.894 55.784 152.522 54.14 151.778 53.252L156.314 52.712C156.602 53.336 156.806 54.104 156.926 55.016C158.702 53.408 160.526 52.604 162.398 52.604C164.342 52.604 165.71 53.144 166.502 54.224C167.318 55.304 167.726 56.864 167.726 58.904V71Z" fill="#3C8272"/>
<path d="M129.726 95.882C129.726 97.586 129.246 99.014 128.286 100.166C127.326 101.294 126.162 102.086 124.794 102.542C123.426 102.974 121.914 103.19 120.258 103.19H111.042V79.034C111.042 79.01 110.994 78.83 110.898 78.494C110.826 78.158 110.742 77.81 110.646 77.45C110.574 77.09 110.538 76.886 110.538 76.838H119.898C121.026 76.838 122.058 76.934 122.994 77.126C123.954 77.294 124.866 77.594 125.73 78.026C126.594 78.458 127.266 79.106 127.746 79.97C128.25 80.81 128.502 81.818 128.502 82.994C128.502 84.506 127.986 85.802 126.954 86.882C125.922 87.962 124.65 88.61 123.138 88.826C124.986 89.138 126.546 89.942 127.818 91.238C129.09 92.51 129.726 94.058 129.726 95.882ZM123.282 83.678C123.282 82.574 122.946 81.758 122.274 81.23C121.626 80.678 120.738 80.402 119.61 80.402H116.01V87.134H119.718C120.75 87.134 121.602 86.822 122.274 86.198C122.946 85.55 123.282 84.71 123.282 83.678ZM124.506 95.306C124.506 93.794 123.954 92.654 122.85 91.886C121.746 91.094 120.402 90.698 118.818 90.698H116.01V99.626H119.934C121.302 99.626 122.406 99.242 123.246 98.474C124.086 97.706 124.506 96.65 124.506 95.306ZM147.519 92.606C147.519 94.046 146.907 94.766 145.683 94.766H136.251C136.251 96.302 136.659 97.682 137.475 98.906C138.291 100.106 139.431 100.706 140.895 100.706C141.639 100.706 142.407 100.526 143.199 100.166C144.015 99.806 144.699 99.35 145.251 98.798L147.087 101.678C146.343 102.302 145.359 102.782 144.135 103.118C142.935 103.43 141.783 103.586 140.679 103.586C137.895 103.586 135.699 102.758 134.091 101.102C132.483 99.422 131.679 97.178 131.679 94.37C131.679 91.706 132.423 89.45 133.911 87.602C135.423 85.73 137.475 84.794 140.067 84.794C142.419 84.794 144.243 85.502 145.539 86.918C146.859 88.334 147.519 90.23 147.519 92.606ZM143.019 91.13C143.019 90.146 142.767 89.342 142.263 88.718C141.759 88.07 141.039 87.746 140.103 87.746C139.143 87.746 138.291 88.19 137.547 89.078C136.803 89.966 136.407 90.914 136.359 91.922H142.407C142.815 91.922 143.019 91.658 143.019 91.13ZM167.108 102.506C166.892 102.554 166.556 102.65 166.1 102.794C165.668 102.938 165.308 103.058 165.02 103.154C164.732 103.226 164.384 103.298 163.976 103.37C163.592 103.442 163.244 103.478 162.932 103.478C162.212 103.478 161.6 103.262 161.096 102.83C160.592 102.374 160.256 101.786 160.088 101.066C158.888 102.746 157.088 103.586 154.688 103.586C153.224 103.586 152.012 103.178 151.052 102.362C150.092 101.546 149.612 100.418 149.612 98.978C149.612 97.73 149.912 96.674 150.512 95.81C151.112 94.946 151.928 94.31 152.96 93.902C153.992 93.47 155.024 93.17 156.056 93.002C157.088 92.81 158.192 92.714 159.368 92.714V90.374C159.368 89.438 159.164 88.79 158.756 88.43C158.348 88.046 157.688 87.854 156.776 87.854C155.504 87.854 153.968 88.55 152.168 89.942L150.404 87.098C152.588 85.61 155.012 84.866 157.676 84.866C159.596 84.866 161.072 85.358 162.104 86.342C163.16 87.326 163.688 88.778 163.688 90.698V98.51C163.688 99.71 163.976 100.31 164.552 100.31C164.744 100.31 165.344 100.166 166.352 99.878L167.108 102.506ZM159.368 96.494V95.666C155.864 95.666 154.112 96.626 154.112 98.546C154.112 99.074 154.316 99.494 154.724 99.806C155.156 100.118 155.648 100.274 156.2 100.274C157.136 100.274 157.892 99.89 158.468 99.122C159.068 98.33 159.368 97.454 159.368 96.494ZM183.817 103.19H179.461V91.526C179.461 90.854 179.425 90.314 179.353 89.906C179.281 89.474 179.065 89.09 178.705 88.754C178.345 88.394 177.841 88.214 177.193 88.214C176.665 88.214 175.981 88.442 175.141 88.898C174.325 89.33 173.713 89.762 173.305 90.194V103.19H168.985V90.374C168.985 87.974 168.613 86.33 167.869 85.442L172.405 84.902C172.693 85.526 172.897 86.294 173.017 87.206C174.793 85.598 176.617 84.794 178.489 84.794C180.433 84.794 181.801 85.334 182.593 86.414C183.409 87.494 183.817 89.054 183.817 91.094V103.19Z" fill="#3C8272"/>
<path d="M111.72 19.27C78.08 3.07001 65.78 21.6 61.82 31.75C51.25 14.62 34.42 8.26 19.14 5.66C11.14 4.29 -0.860036 -0.879995 0.849965 0.440005C2.55996 1.76001 1.99997 13.77 6.11997 25.1C12.23 42.03 44.54 40.53 58.66 45.24C68.02 48.36 64.79 59.89 61.86 69.42C61.34 69.08 60.86 68.73 60.32 68.42C54.9286 64.5475 50.5877 59.3921 47.69 53.42C46.5689 51.0835 44.8669 49.074 42.7469 47.5836C40.6268 46.0932 38.1598 45.172 35.5818 44.9081C33.0038 44.6442 30.4012 45.0464 28.0231 46.0763C25.6451 47.1061 23.5712 48.7292 22 50.79C21.1398 52.0742 20.4032 53.437 19.8 54.86C18.6244 57.653 17.98 60.6407 17.9 63.67V63.74C17.9 63.98 17.9 64.22 17.9 64.46V64.55C17.8914 70.1397 19.0673 75.6677 21.35 80.77C26.125 91.466 33.7324 100.654 43.35 107.34L43.49 107.45C44.64 108.24 45.81 109 47.01 109.72L47.14 109.8C54.0422 113.697 61.9528 115.438 69.8533 114.8C77.7539 114.162 85.2825 111.174 91.47 106.22L92.38 105.46C94.6937 103.463 96.6104 101.047 98.03 98.34C98.08 98.24 98.14 98.14 98.19 98.03C98.24 97.92 98.33 97.76 98.4 97.61C98.47 97.46 98.51 97.39 98.56 97.28C98.61 97.17 98.69 96.99 98.75 96.85C100.022 93.8383 100.286 90.4959 99.5018 87.322C98.7178 84.1481 96.9281 81.313 94.4 79.24C91.588 76.9306 88.0374 75.7128 84.4 75.81H83.5C78.8967 75.817 74.3278 75.0183 70 73.45C71.15 64.45 70.3 49.71 65.78 39.29C65.53 38.72 65.27 38.15 65.01 37.6C83.86 37.88 149.84 37.63 111.72 19.27ZM67.82 111.71C75.982 111.723 83.9018 108.938 90.26 103.82L90.76 103.41C90.42 103.74 90.08 104.06 89.76 104.41C89.44 104.76 89.21 104.87 88.93 105.09C83.3354 109.576 76.5255 112.283 69.3782 112.862C62.2308 113.441 55.0738 111.866 48.83 108.34L48.7 108.26C47.62 107.61 46.56 106.93 45.52 106.21L45.39 106.11C36.7062 100.064 29.8335 91.7674 25.51 82.11C23.4413 77.4927 22.3745 72.4895 22.38 67.43V67.35C22.38 67.13 22.38 66.92 22.38 66.7C22.3753 66.6803 22.3753 66.6597 22.38 66.64C22.4448 63.8899 23.0248 61.1763 24.09 58.64C24.6381 57.3525 25.3078 56.1203 26.09 54.96C26.8048 54.0168 27.6384 53.1699 28.57 52.44C28.1728 52.8487 27.7988 53.2794 27.45 53.73C26.6701 54.8952 26.0006 56.1306 25.45 57.42C24.3814 59.9556 23.798 62.6692 23.73 65.42V65.49C23.73 65.71 23.73 65.92 23.73 66.14V66.22C23.7214 71.2788 24.7847 76.282 26.85 80.9C31.1769 90.5552 38.0489 98.8514 46.73 104.9L46.87 105C47.87 105.71 48.96 106.4 50.05 107.05L50.17 107.13C55.5595 110.154 61.64 111.732 67.82 111.71Z" fill="url(#paint0_linear)"/>
<defs>
<linearGradient id="paint0_linear" x1="62.03" y1="114.97" x2="62.03" y2="0.230005" gradientUnits="userSpaceOnUse">
<stop stop-color="#99D3B9"/>
<stop offset="0.06" stop-color="#93D1B5"/>
<stop offset="0.13" stop-color="#83CCAB"/>
<stop offset="0.22" stop-color="#68C49A"/>
<stop offset="0.31" stop-color="#43B883"/>
<stop offset="0.39" stop-color="#42B281"/>
<stop offset="0.5" stop-color="#40A27C"/>
<stop offset="0.62" stop-color="#3D8774"/>
<stop offset="0.64" stop-color="#3C8272"/>
<stop offset="0.73" stop-color="#3C7E71"/>
<stop offset="0.83" stop-color="#3A716C"/>
<stop offset="0.93" stop-color="#385D65"/>
<stop offset="1" stop-color="#364A5E"/>
</linearGradient>
</defs>
</svg>
