<svg id="Layer_1" data-name="Layer 1" xmlns="http://www.w3.org/2000/svg" xmlns:xlink="http://www.w3.org/1999/xlink" viewBox="0 0 68.92 108.32"><defs><style>.cls-1,.cls-10,.cls-11,.cls-12,.cls-2,.cls-3,.cls-4,.cls-5,.cls-6,.cls-8,.cls-9{stroke:#231f20;stroke-miterlimit:10;}.cls-1{fill:url(#linear-gradient);}.cls-2{fill:url(#linear-gradient-2);}.cls-3{fill:url(#linear-gradient-3);}.cls-4{fill:url(#linear-gradient-4);}.cls-5{fill:url(#Orange_Yellow);}.cls-6{fill:url(#Orange_Yellow-2);}.cls-7,.cls-8,.cls-9{fill:#231f20;}.cls-9{stroke-width:1.5px;}.cls-10{fill:url(#linear-gradient-5);}.cls-11{fill:url(#linear-gradient-6);}.cls-12{fill:url(#linear-gradient-7);}</style><linearGradient id="linear-gradient" x1="272.68" y1="422.7" x2="296.38" y2="427.36" gradientUnits="userSpaceOnUse"><stop offset="0" stop-color="#00a651"/><stop offset="0.45" stop-color="#01aa65"/><stop offset="0.52" stop-color="#01ab68"/><stop offset="0.59" stop-color="#17b275"/><stop offset="0.74" stop-color="#51c395"/><stop offset="0.94" stop-color="#acdec9"/><stop offset="1" stop-color="#c6e6d7"/></linearGradient><linearGradient id="linear-gradient-2" x1="331.63" y1="444.91" x2="308.4" y2="459.89" gradientTransform="matrix(0.97, 0.25, -0.25, 0.97, 113.73, -100.74)" xlink:href="#linear-gradient"/><linearGradient id="linear-gradient-3" x1="275.32" y1="392.15" x2="295.02" y2="403.85" gradientTransform="translate(-28.75 34.18) rotate(-4.39)" xlink:href="#linear-gradient"/><linearGradient id="linear-gradient-4" x1="320.19" y1="394.14" x2="298.26" y2="407.09" gradientTransform="translate(1.69 -5.24) rotate(0.25)" xlink:href="#linear-gradient"/><linearGradient id="Orange_Yellow" x1="0.5" y1="70.29" x2="68.42" y2="70.29" gradientUnits="userSpaceOnUse"><stop offset="0" stop-color="#fff33b"/><stop offset="0.04" stop-color="#fee72e"/><stop offset="0.12" stop-color="#fed51b"/><stop offset="0.2" stop-color="#fdca10"/><stop offset="0.28" stop-color="#fdc70c"/><stop offset="0.67" stop-color="#f3903f"/><stop offset="0.89" stop-color="#ed683c"/><stop offset="1" stop-color="#e93e3a"/></linearGradient><linearGradient id="Orange_Yellow-2" x1="3.56" y1="90.72" x2="65.35" y2="90.72" xlink:href="#Orange_Yellow"/><linearGradient id="linear-gradient-5" x1="276.77" y1="385.27" x2="295.5" y2="397.52" xlink:href="#linear-gradient"/><linearGradient id="linear-gradient-6" x1="316.15" y1="373.18" x2="298.1" y2="385.26" gradientUnits="userSpaceOnUse"><stop offset="0" stop-color="#00a651"/><stop offset="0.18" stop-color="#03a753"/><stop offset="0.3" stop-color="#0ca858"/><stop offset="0.41" stop-color="#1bac62"/><stop offset="0.5" stop-color="#30b06f"/><stop offset="0.58" stop-color="#4cb680"/><stop offset="0.67" stop-color="#6ebe96"/><stop offset="0.74" stop-color="#96c6af"/><stop offset="0.82" stop-color="#c3d0cb"/><stop offset="0.84" stop-color="#d1d3d4"/></linearGradient><linearGradient id="linear-gradient-7" x1="283.23" y1="378.23" x2="299.28" y2="388.32" gradientTransform="translate(25.95 -29.42) rotate(3.99)" xlink:href="#linear-gradient"/></defs><path class="cls-1" d="M296.73,427.77s-6.8,5.06-13.45,3.56-10.64-9-10.64-9,6.8-5.06,13.46-3.56S296.73,427.77,296.73,427.77Z" transform="translate(-262.9 -366.83)"/><path class="cls-2" d="M297.11,421.81s3.61-9,11-11.46,15.67,2.42,15.67,2.42-3.61,9-11,11.46S297.11,421.81,297.11,421.81Z" transform="translate(-262.9 -366.83)"/><path class="cls-3" d="M273.81,403.23s8-3.42,14.22-.37,8.46,11.43,8.46,11.43-8,3.43-14.22.38S273.81,403.23,273.81,403.23Z" transform="translate(-262.9 -366.83)"/><path class="cls-4" d="M320.34,390.22s-8.5-3-14.76.68-7.91,12.48-7.91,12.48,8.5,3,14.76-.67S320.34,390.22,320.34,390.22Z" transform="translate(-262.9 -366.83)"/><polyline class="cls-5" points="22.71 73.61 68.42 73.61 68.42 66.97 0.5 66.97 0.5 73.61 8.67 73.61"/><polyline class="cls-6" points="65.35 73.61 59.73 107.82 9.18 107.82 3.56 73.61"/><circle class="cls-7" cx="27.65" cy="91.48" r="1.53"/><circle class="cls-7" cx="41.27" cy="91.48" r="1.53"/><path class="cls-7" d="M301.32,462.15a4,4,0,0,1-7.92,0" transform="translate(-262.9 -366.83)"/><path class="cls-8" d="M297.15,433.81" transform="translate(-262.9 -366.83)"/><line class="cls-9" x1="34.24" y1="66.97" x2="34.24" y2="12.15"/><path class="cls-10" d="M296,397.83s-1-7.84-6.36-11.32-12.92-1.28-12.92-1.28,1,7.84,6.36,11.32S296,397.83,296,397.83Z" transform="translate(-262.9 -366.83)"/><path class="cls-11" d="M297.46,385.54s1-7.72,6.27-11.15,12.72-1.26,12.72-1.26-1,7.72-6.26,11.15S297.46,385.54,297.46,385.54Z" transform="translate(-262.9 -366.83)"/><path class="cls-12" d="M297.39,378.93s-6.26,1.32-10.35-1.81-4.45-9.51-4.45-9.51,6.26-1.32,10.35,1.81S297.39,378.93,297.39,378.93Z" transform="translate(-262.9 -366.83)"/></svg>