<svg id="Layer_1" data-name="Layer 1" xmlns="http://www.w3.org/2000/svg" xmlns:xlink="http://www.w3.org/1999/xlink" viewBox="0 0 68.92 66.37"><defs><style>.cls-1,.cls-2,.cls-4,.cls-5,.cls-6{stroke:#231f20;stroke-miterlimit:10;}.cls-1{fill:url(#Orange_Yellow);}.cls-2{fill:url(#Orange_Yellow-2);}.cls-3,.cls-4{fill:#231f20;}.cls-5{fill:url(#linear-gradient);}.cls-6{fill:url(#linear-gradient-2);}</style><linearGradient id="Orange_Yellow" x1="0.5" y1="28.34" x2="68.42" y2="28.34" gradientUnits="userSpaceOnUse"><stop offset="0" stop-color="#fff33b"/><stop offset="0.04" stop-color="#fee72e"/><stop offset="0.12" stop-color="#fed51b"/><stop offset="0.2" stop-color="#fdca10"/><stop offset="0.28" stop-color="#fdc70c"/><stop offset="0.67" stop-color="#f3903f"/><stop offset="0.89" stop-color="#ed683c"/><stop offset="1" stop-color="#e93e3a"/></linearGradient><linearGradient id="Orange_Yellow-2" x1="3.56" y1="48.76" x2="65.35" y2="48.76" xlink:href="#Orange_Yellow"/><linearGradient id="linear-gradient" x1="275.63" y1="406.38" x2="292.45" y2="410.66" gradientUnits="userSpaceOnUse"><stop offset="0" stop-color="#00a651"/><stop offset="0.45" stop-color="#01aa65"/><stop offset="0.52" stop-color="#01ab68"/><stop offset="0.59" stop-color="#17b275"/><stop offset="0.74" stop-color="#51c395"/><stop offset="0.94" stop-color="#acdec9"/><stop offset="1" stop-color="#c6e6d7"/></linearGradient><linearGradient id="linear-gradient-2" x1="311.56" y1="393.72" x2="292.6" y2="405.95" gradientTransform="matrix(0.99, -0.1, 0.1, 0.99, -39.89, 33.51)" xlink:href="#linear-gradient"/></defs><polyline class="cls-1" points="22.71 31.66 68.42 31.66 68.42 25.02 0.5 25.02 0.5 31.66 8.67 31.66"/><polyline class="cls-2" points="65.35 31.66 59.73 65.87 9.18 65.87 3.56 31.66"/><circle class="cls-3" cx="27.65" cy="49.53" r="1.53"/><circle class="cls-3" cx="41.27" cy="49.53" r="1.53"/><path class="cls-3" d="M297.62,445.73a4,4,0,1,1-7.92,0" transform="translate(-259.2 -392.37)"/><path class="cls-4" d="M293.45,417.39" transform="translate(-259.2 -392.37)"/><line class="cls-4" x1="34.24" y1="25.02" x2="34.24" y2="14.29"/><path class="cls-5" d="M293,410.55s-4.8,3.58-9.49,2.52-7.51-6.34-7.51-6.34,4.8-3.57,9.5-2.51S293,410.55,293,410.55Z" transform="translate(-259.2 -392.37)"/><path class="cls-6" d="M293.28,407s.21-7.55,4.92-11.39,12.16-2.49,12.16-2.49-.21,7.55-4.93,11.38S293.28,407,293.28,407Z" transform="translate(-259.2 -392.37)"/></svg>