<svg id="Layer_1" data-name="Layer 1" xmlns="http://www.w3.org/2000/svg" xmlns:xlink="http://www.w3.org/1999/xlink" viewBox="0 0 69.12 83.45"><defs><style>.cls-1,.cls-2,.cls-3,.cls-4,.cls-5,.cls-6,.cls-8{stroke:#231f20;stroke-miterlimit:10;}.cls-1{fill:url(#linear-gradient);}.cls-2{fill:url(#linear-gradient-2);}.cls-3{fill:url(#linear-gradient-3);}.cls-4{fill:url(#linear-gradient-4);}.cls-5,.cls-6,.cls-8{stroke-width:1.2px;}.cls-5{fill:url(#Orange_Yellow);}.cls-6{fill:url(#Orange_Yellow-2);}.cls-7,.cls-8{fill:#231f20;}</style><linearGradient id="linear-gradient" x1="276.92" y1="410.82" x2="296.44" y2="414.66" gradientUnits="userSpaceOnUse"><stop offset="0" stop-color="#00a651"/><stop offset="0.45" stop-color="#01aa65"/><stop offset="0.52" stop-color="#01ab68"/><stop offset="0.59" stop-color="#17b275"/><stop offset="0.74" stop-color="#51c395"/><stop offset="0.94" stop-color="#acdec9"/><stop offset="1" stop-color="#c6e6d7"/></linearGradient><linearGradient id="linear-gradient-2" x1="319.93" y1="402.51" x2="298.97" y2="416.03" gradientTransform="translate(31.53 -27.76) rotate(4.36)" xlink:href="#linear-gradient"/><linearGradient id="linear-gradient-3" x1="280.51" y1="393.71" x2="295.91" y2="402.85" xlink:href="#linear-gradient"/><linearGradient id="linear-gradient-4" x1="316.35" y1="378.01" x2="297.11" y2="389.36" gradientTransform="matrix(1, -0.04, 0.04, 1, -16.43, 17.06)" xlink:href="#linear-gradient"/><linearGradient id="Orange_Yellow" x1="0.6" y1="45.32" x2="68.52" y2="45.32" gradientUnits="userSpaceOnUse"><stop offset="0" stop-color="#fff33b"/><stop offset="0.04" stop-color="#fee72e"/><stop offset="0.12" stop-color="#fed51b"/><stop offset="0.2" stop-color="#fdca10"/><stop offset="0.28" stop-color="#fdc70c"/><stop offset="0.67" stop-color="#f3903f"/><stop offset="0.89" stop-color="#ed683c"/><stop offset="1" stop-color="#e93e3a"/></linearGradient><linearGradient id="Orange_Yellow-2" x1="3.66" y1="65.75" x2="65.45" y2="65.75" xlink:href="#Orange_Yellow"/></defs><path class="cls-1" d="M296.73,415s-5.6,4.16-11.08,2.93-8.76-7.39-8.76-7.39,5.61-4.17,11.08-2.94S296.73,415,296.73,415Z" transform="translate(-262.8 -379.51)"/><path class="cls-2" d="M297.35,410.24s1.8-8.53,7.95-11.91,14.31-.33,14.31-.33-1.8,8.54-7.94,11.92S297.35,410.24,297.35,410.24Z" transform="translate(-262.8 -379.51)"/><path class="cls-3" d="M279.05,392.9s6.4-2.2,11.1.56,5.9,9.41,5.9,9.41-6.4,2.2-11.1-.56S279.05,392.9,279.05,392.9Z" transform="translate(-262.8 -379.51)"/><path class="cls-4" d="M316.4,380.71s-7.58-2.22-12.91,1.23-6.41,11.27-6.41,11.27,7.58,2.23,12.91-1.22S316.4,380.71,316.4,380.71Z" transform="translate(-262.8 -379.51)"/><polyline class="cls-5" points="22.81 48.64 68.52 48.64 68.52 42 0.6 42 0.6 48.64 8.77 48.64"/><polyline class="cls-6" points="65.45 48.64 59.83 82.86 9.28 82.86 3.66 48.64"/><circle class="cls-7" cx="27.75" cy="66.51" r="1.53"/><circle class="cls-7" cx="41.37" cy="66.51" r="1.53"/><path class="cls-7" d="M301.32,449.85a4,4,0,1,1-7.92,0" transform="translate(-262.8 -379.51)"/><path class="cls-8" d="M297.15,421.51" transform="translate(-262.8 -379.51)"/><line class="cls-8" x1="34.34" y1="42" x2="34.34" y2="13.87"/></svg>