<svg width="375" height="667" viewBox="0 0 375 667" fill="none" xmlns="http://www.w3.org/2000/svg">
<g clip-path="url(#clip0)">
<rect width="375" height="667" fill="#C3EFDB"/>
<path fill-rule="evenodd" clip-rule="evenodd" d="M54.1849 246.388L45.031 248.62L50.6059 271.502L52.8335 280.653L61.9875 278.422L72.7256 275.812L76.069 289.54L78.3005 298.694L87.4506 296.46L98.1783 293.848L101.521 307.57L103.752 316.723L112.902 314.489L126.634 311.149L124.403 301.995L110.675 305.338L105.1 282.456L95.9457 284.687L95.9534 284.693L85.2229 287.308L79.6481 264.426L73.488 265.927L59.7598 269.27L54.1849 246.388Z" fill="#41B883" fill-opacity="0.5"/>
<path fill-rule="evenodd" clip-rule="evenodd" d="M37.13 269.963L27.976 272.194L33.5509 295.077L35.7786 304.228L44.9325 301.996L55.6707 299.386L59.014 313.114L61.2455 322.268L70.3956 320.034L81.1234 317.423L84.4656 331.144L86.6971 340.298L95.8472 338.064L109.579 334.723L107.348 325.569L93.6196 328.913L88.0447 306.031L78.8908 308.262L78.8984 308.268L68.168 310.883L62.5931 288.001L56.433 289.502L42.7049 292.845L37.13 269.963Z" fill="#41B883" fill-opacity="0.5"/>
<path fill-rule="evenodd" clip-rule="evenodd" d="M18.2972 292.897L9.14328 295.129L14.7181 318.011L16.9458 327.162L26.0997 324.93L36.8379 322.32L40.1813 336.049L42.4128 345.203L51.5628 342.968L62.2906 340.357L65.6329 354.078L67.8643 363.232L77.0144 360.998L90.7465 357.657L88.515 348.504L74.7868 351.847L69.2119 328.965L60.058 331.196L60.0657 331.202L49.3352 333.817L43.7603 310.935L37.6003 312.436L23.8721 315.779L18.2972 292.897Z" fill="#41B883" fill-opacity="0.5"/>
<path fill-rule="evenodd" clip-rule="evenodd" d="M231.185 393.319L230.124 402.681L253.525 405.338L262.883 406.402L263.945 397.04L265.197 386.061L279.236 387.656L288.598 388.717L289.656 379.358L290.903 368.388L304.936 369.981L314.298 371.043L315.356 361.684L316.955 347.642L307.593 346.58L305.997 360.619L282.596 357.963L281.535 367.325L281.543 367.319L280.298 378.294L256.897 375.637L256.181 381.937L254.586 395.976L231.185 393.319Z" fill="#41B883" fill-opacity="0.5"/>
<path fill-rule="evenodd" clip-rule="evenodd" d="M252.374 419.272L251.313 428.634L274.714 431.29L284.072 432.355L285.133 422.993L286.386 412.013L300.425 413.608L309.787 414.67L310.845 405.31L312.092 394.34L326.125 395.934L335.487 396.995L336.545 387.636L338.144 373.594L328.782 372.533L327.186 386.572L303.785 383.915L302.724 393.277L302.731 393.272L301.487 404.246L278.086 401.589L277.37 407.889L275.775 421.928L252.374 419.272Z" fill="#41B883" fill-opacity="0.5"/>
<path fill-rule="evenodd" clip-rule="evenodd" d="M272.95 446.893L271.889 456.255L295.29 458.911L304.648 459.976L305.709 450.614L306.962 439.634L321.001 441.229L330.363 442.291L331.421 432.931L332.668 421.961L346.701 423.555L356.063 424.616L357.121 415.257L358.719 401.215L349.357 400.154L347.762 414.193L324.361 411.536L323.3 420.898L323.307 420.893L322.063 431.867L298.662 429.21L297.946 435.51L296.351 449.549L272.95 446.893Z" fill="#41B883" fill-opacity="0.5"/>
<path fill-rule="evenodd" clip-rule="evenodd" d="M194.69 25.3165L193.664 34.6825L217.075 37.2503L226.437 38.279L227.463 28.9131L228.674 17.9288L242.719 19.4706L252.085 20.4966L253.107 11.1333L254.313 0.158292L268.352 1.69887L277.718 2.72492L278.74 -6.63836L280.286 -20.6861L270.92 -21.7122L269.378 -7.6671L245.967 -10.2349L244.941 -0.868947L244.948 -0.874313L243.745 10.1046L220.334 7.53676L219.643 13.8392L218.101 27.8843L194.69 25.3165Z" fill="#41B883" fill-opacity="0.5"/>
<path fill-rule="evenodd" clip-rule="evenodd" d="M211.03 49.3922L210.004 58.7582L233.415 61.326L242.777 62.3547L243.803 52.9888L245.014 42.0045L259.059 43.5463L268.425 44.5723L269.448 35.209L270.653 24.234L284.692 25.7746L294.058 26.8006L295.08 17.4374L296.626 3.38959L287.26 2.36353L285.718 16.4086L262.307 13.8408L261.281 23.2068L261.288 23.2014L260.085 34.1803L236.674 31.6125L235.983 37.9149L234.441 51.96L211.03 49.3922Z" fill="#41B883" fill-opacity="0.5"/>
<path fill-rule="evenodd" clip-rule="evenodd" d="M226.162 74.9205L225.136 84.2864L248.547 86.8543L257.909 87.883L258.935 78.517L260.146 67.5328L274.191 69.0745L283.557 70.1006L284.579 60.7373L285.785 49.7623L299.823 51.3028L309.189 52.3289L310.211 42.9656L311.757 28.9178L302.391 27.8918L300.849 41.9369L277.438 39.3691L276.412 48.735L276.42 48.7297L275.217 59.7086L251.806 57.1407L251.114 63.4432L249.573 77.4883L226.162 74.9205Z" fill="#41B883" fill-opacity="0.5"/>
<path d="M0 530.188C0 530.188 67.2266 530.163 110 524.303C173.5 515.602 199.708 512.632 258.5 510.228C303.852 508.374 375 518.417 375 518.417V674H0V530.188Z" fill="white"/>
<path d="M39.1 145H35.33L30.65 127.476H34.108L35.746 133.95C36.0233 135.111 36.3007 136.316 36.578 137.564C36.8553 138.812 37.0633 139.765 37.202 140.424L37.41 141.438C37.9647 139.254 38.6407 136.758 39.438 133.95L41.206 127.736H43.858L45.652 133.95L47.732 141.49C48.1653 139.081 48.7027 136.559 49.344 133.924L50.93 127.476H54.258L49.786 145H45.99L44.404 139.462C43.9707 137.989 43.598 136.689 43.286 135.562C42.9913 134.435 42.792 133.681 42.688 133.3L42.558 132.702C42.3153 133.915 41.7087 136.169 40.738 139.462L39.1 145ZM66.6602 144.272C65.7415 144.844 64.4155 145.13 62.6822 145.13C60.5849 145.13 58.9295 144.506 57.7162 143.258C56.5029 142.01 55.8962 140.398 55.8962 138.422C55.8962 136.325 56.4682 134.678 57.6122 133.482C58.7562 132.286 60.1862 131.688 61.9022 131.688C63.6182 131.688 64.9789 132.208 65.9842 133.248C66.9895 134.288 67.4922 135.805 67.4922 137.798C67.4922 138.283 67.4315 138.907 67.3102 139.67H59.0422C59.2675 140.623 59.7355 141.351 60.4462 141.854C61.1742 142.357 62.0755 142.608 63.1502 142.608C64.5369 142.608 65.7069 142.261 66.6602 141.568V144.272ZM61.9802 134.132C61.2349 134.132 60.5849 134.409 60.0302 134.964C59.4929 135.501 59.1462 136.29 58.9902 137.33H64.5282V136.94C64.4935 136.091 64.2595 135.415 63.8262 134.912C63.4102 134.392 62.7949 134.132 61.9802 134.132ZM73.6099 145H70.4899V126.618H73.6099V145ZM86.6558 144.428C85.7372 144.965 84.5932 145.234 83.2238 145.234C81.1958 145.234 79.5492 144.593 78.2838 143.31C77.0358 142.027 76.4118 140.407 76.4118 138.448C76.4292 136.524 77.0532 134.903 78.2838 133.586C79.5318 132.269 81.2305 131.61 83.3798 131.61C84.6625 131.61 85.7545 131.853 86.6558 132.338V135.094C85.7892 134.539 84.8012 134.262 83.6918 134.262C82.4785 134.262 81.4992 134.643 80.7538 135.406C80.0085 136.169 79.6272 137.183 79.6098 138.448C79.6445 139.696 80.0172 140.701 80.7278 141.464C81.4558 142.227 82.4352 142.608 83.6658 142.608C84.7405 142.608 85.7372 142.313 86.6558 141.724V144.428ZM101.339 138.37C101.339 140.363 100.775 142.001 99.6487 143.284C98.5394 144.567 96.9794 145.208 94.9687 145.208C92.9754 145.208 91.4154 144.584 90.2887 143.336C89.1794 142.088 88.6247 140.493 88.6247 138.552C88.6247 136.541 89.2054 134.886 90.3667 133.586C91.5281 132.269 93.0621 131.61 94.9687 131.61C96.9967 131.61 98.5654 132.251 99.6747 133.534C100.784 134.799 101.339 136.411 101.339 138.37ZM91.9007 138.448C91.9007 139.661 92.1694 140.675 92.7067 141.49C93.2441 142.305 94.0067 142.712 94.9947 142.712C96.0174 142.712 96.7887 142.313 97.3087 141.516C97.8287 140.719 98.0887 139.705 98.0887 138.474C98.0887 137.209 97.8374 136.177 97.3347 135.38C96.8321 134.565 96.0434 134.158 94.9687 134.158C93.9807 134.158 93.2181 134.565 92.6807 135.38C92.1607 136.195 91.9007 137.217 91.9007 138.448ZM122.722 145H119.576V136.914C119.576 135.146 118.9 134.262 117.548 134.262C116.872 134.262 116.265 134.557 115.728 135.146C115.208 135.735 114.948 136.663 114.948 137.928V145H111.802V136.914C111.802 135.146 111.126 134.262 109.774 134.262C109.098 134.262 108.491 134.557 107.954 135.146C107.417 135.735 107.148 136.663 107.148 137.928V145H104.028V131.818H107.148V133.898C107.893 132.407 109.133 131.662 110.866 131.662C112.79 131.662 114.038 132.494 114.61 134.158C114.957 133.361 115.477 132.745 116.17 132.312C116.863 131.879 117.652 131.662 118.536 131.662C119.871 131.662 120.902 132.069 121.63 132.884C122.358 133.681 122.722 134.825 122.722 136.316V145ZM136.002 144.272C135.083 144.844 133.757 145.13 132.024 145.13C129.927 145.13 128.271 144.506 127.058 143.258C125.845 142.01 125.238 140.398 125.238 138.422C125.238 136.325 125.81 134.678 126.954 133.482C128.098 132.286 129.528 131.688 131.244 131.688C132.96 131.688 134.321 132.208 135.326 133.248C136.331 134.288 136.834 135.805 136.834 137.798C136.834 138.283 136.773 138.907 136.652 139.67H128.384C128.609 140.623 129.077 141.351 129.788 141.854C130.516 142.357 131.417 142.608 132.492 142.608C133.879 142.608 135.049 142.261 136.002 141.568V144.272ZM131.322 134.132C130.577 134.132 129.927 134.409 129.372 134.964C128.835 135.501 128.488 136.29 128.332 137.33H133.87V136.94C133.835 136.091 133.601 135.415 133.168 134.912C132.752 134.392 132.137 134.132 131.322 134.132ZM38.918 181H31.82V163.476H38.034C39.906 163.476 41.362 163.918 42.402 164.802C43.442 165.686 43.962 166.83 43.962 168.234C43.962 169.187 43.702 170.019 43.182 170.73C42.662 171.423 41.9947 171.883 41.18 172.108C42.116 172.333 42.8873 172.793 43.494 173.486C44.1007 174.162 44.404 175.089 44.404 176.268C44.404 177.655 43.9187 178.79 42.948 179.674C41.9773 180.558 40.634 181 38.918 181ZM37.618 166.154H35.096V170.86H37.072C38.2507 170.86 39.1347 170.626 39.724 170.158C40.3133 169.69 40.608 169.092 40.608 168.364C40.608 167.688 40.3567 167.151 39.854 166.752C39.3687 166.353 38.6233 166.154 37.618 166.154ZM37.774 173.486H35.096V178.322H37.904C40.0013 178.322 41.05 177.525 41.05 175.93C41.05 174.301 39.958 173.486 37.774 173.486ZM51.6007 178.79C52.2941 178.79 52.8314 178.591 53.2127 178.192C53.6114 177.776 53.8107 177.239 53.8107 176.58V175.332H52.1987C51.3841 175.332 50.7601 175.505 50.3267 175.852C49.8934 176.181 49.6767 176.606 49.6767 177.126C49.6767 178.235 50.3181 178.79 51.6007 178.79ZM53.9407 179.414C53.3341 180.541 52.1901 181.104 50.5087 181.104C49.2607 181.104 48.2641 180.74 47.5187 180.012C46.7907 179.284 46.4267 178.365 46.4267 177.256C46.4267 176.008 46.8947 175.029 47.8307 174.318C48.7667 173.607 50.1187 173.252 51.8867 173.252H53.8107V172.446C53.8107 171.718 53.6201 171.163 53.2387 170.782C52.8574 170.401 52.2074 170.21 51.2887 170.21C49.8847 170.21 48.5934 170.6 47.4147 171.38V168.494C48.4027 167.887 49.8241 167.584 51.6787 167.584C55.2494 167.584 57.0347 169.248 57.0347 172.576V181H53.9407V179.414ZM69.7965 180.428C68.8778 180.965 67.7338 181.234 66.3645 181.234C64.3365 181.234 62.6898 180.593 61.4245 179.31C60.1765 178.027 59.5525 176.407 59.5525 174.448C59.5698 172.524 60.1938 170.903 61.4245 169.586C62.6725 168.269 64.3711 167.61 66.5205 167.61C67.8031 167.61 68.8951 167.853 69.7965 168.338V171.094C68.9298 170.539 67.9418 170.262 66.8325 170.262C65.6191 170.262 64.6398 170.643 63.8945 171.406C63.1491 172.169 62.7678 173.183 62.7505 174.448C62.7851 175.696 63.1578 176.701 63.8685 177.464C64.5965 178.227 65.5758 178.608 66.8065 178.608C67.8811 178.608 68.8778 178.313 69.7965 177.724V180.428ZM75.5873 181H72.4673V162.93H75.5873V174.006L80.2413 167.818H83.8813L79.0453 174.11L83.9853 181H80.3193L75.5873 174.188V181Z" fill="#35495E"/>
<path d="M34.648 220H32.912L30.434 210.564H31.932L32.814 214.05L33.85 218.474C34.27 216.906 34.6807 215.431 35.082 214.05L36.048 210.704H37.322L38.316 214.064L39.59 218.502C39.9353 216.803 40.2573 215.324 40.556 214.064L41.382 210.564H42.838L40.528 220H38.806L37.91 217.018L36.692 212.804C36.4773 213.691 36.0853 215.095 35.516 217.018L34.648 220ZM49.5197 219.622C48.9971 219.921 48.3064 220.07 47.4477 220.07C46.3464 220.07 45.4691 219.739 44.8157 219.076C44.1624 218.413 43.8357 217.545 43.8357 216.472C43.8357 215.333 44.1344 214.442 44.7317 213.798C45.3291 213.145 46.0897 212.818 47.0137 212.818C47.9191 212.818 48.6377 213.103 49.1697 213.672C49.7017 214.232 49.9677 215.044 49.9677 216.108C49.9677 216.397 49.9397 216.701 49.8837 217.018H45.2217C45.3151 217.634 45.5764 218.105 46.0057 218.432C46.4351 218.759 46.9764 218.922 47.6297 218.922C48.3857 218.922 49.0157 218.745 49.5197 218.39V219.622ZM47.0417 213.952C46.5751 213.952 46.1737 214.125 45.8377 214.47C45.5017 214.806 45.2917 215.296 45.2077 215.94H48.6377V215.688C48.6191 215.156 48.4744 214.736 48.2037 214.428C47.9331 214.111 47.5457 213.952 47.0417 213.952ZM56.4845 220.63C56.4845 221.293 56.3072 221.811 55.9525 222.184C55.6072 222.557 55.1125 222.744 54.4685 222.744C54.1698 222.744 53.8292 222.674 53.4465 222.534V221.372C53.7452 221.521 54.0438 221.596 54.3425 221.596C54.8558 221.596 55.1125 221.265 55.1125 220.602V212.902H56.4845V220.63ZM56.6525 210.732C56.6525 210.965 56.5685 211.166 56.4005 211.334C56.2325 211.502 56.0272 211.586 55.7845 211.586C55.5512 211.586 55.3505 211.507 55.1825 211.348C55.0145 211.18 54.9305 210.975 54.9305 210.732C54.9305 210.489 55.0098 210.284 55.1685 210.116C55.3365 209.948 55.5418 209.864 55.7845 209.864C56.0272 209.864 56.2325 209.948 56.4005 210.116C56.5685 210.284 56.6525 210.489 56.6525 210.732ZM64.2011 220H62.8291V218.782C62.4558 219.65 61.7185 220.084 60.6171 220.084C59.9171 220.084 59.3618 219.879 58.9511 219.468C58.5405 219.048 58.3351 218.474 58.3351 217.746V212.902H59.7211V217.41C59.7211 217.895 59.8378 218.269 60.0711 218.53C60.3138 218.782 60.6451 218.908 61.0651 218.908C61.5971 218.908 62.0218 218.721 62.3391 218.348C62.6658 217.975 62.8291 217.447 62.8291 216.766V212.902H64.2011V220ZM70.5681 218.04C70.5681 218.675 70.3441 219.174 69.8961 219.538C69.4481 219.893 68.8414 220.07 68.0761 220.07C67.2361 220.07 66.5361 219.93 65.9761 219.65V218.348C66.6294 218.749 67.3061 218.95 68.0061 218.95C68.3701 218.95 68.6501 218.875 68.8461 218.726C69.0514 218.577 69.1541 218.381 69.1541 218.138C69.1541 217.933 69.0747 217.751 68.9161 217.592C68.7574 217.424 68.5941 217.303 68.4261 217.228C68.2674 217.144 67.9921 217.018 67.6001 216.85C66.4894 216.393 65.9341 215.721 65.9341 214.834C65.9341 214.209 66.1674 213.719 66.6341 213.364C67.1007 213.009 67.6841 212.832 68.3841 212.832C69.1494 212.832 69.7467 212.935 70.1761 213.14V214.386C69.7187 214.115 69.1307 213.98 68.4121 213.98C68.0854 213.98 67.8241 214.055 67.6281 214.204C67.4414 214.353 67.3481 214.549 67.3481 214.792C67.3481 214.857 67.3527 214.923 67.3621 214.988C67.3807 215.044 67.4087 215.105 67.4461 215.17C67.4834 215.226 67.5161 215.277 67.5441 215.324C67.5814 215.361 67.6374 215.403 67.7121 215.45C67.7867 215.497 67.8427 215.539 67.8801 215.576C67.9267 215.604 67.9967 215.641 68.0901 215.688C68.1927 215.735 68.2674 215.772 68.3141 215.8C68.3607 215.819 68.4401 215.856 68.5521 215.912C68.6734 215.959 68.7574 215.991 68.8041 216.01C69.3547 216.253 69.7841 216.528 70.0921 216.836C70.4094 217.135 70.5681 217.536 70.5681 218.04ZM75.7193 219.818C75.4113 219.986 75.0333 220.07 74.5853 220.07C73.12 220.07 72.3873 219.328 72.3873 217.844V213.966H71.2813V212.902H72.3873V211.166H73.7733V212.902H75.6353V213.966H73.7733V217.872C73.7733 218.553 74.1 218.894 74.7533 218.894C75.136 218.894 75.458 218.791 75.7193 218.586V219.818ZM86.5429 220H85.1709V215.52C85.1709 215.025 85.0449 214.647 84.7929 214.386C84.5503 214.125 84.2236 213.994 83.8129 213.994C83.3276 213.994 82.9123 214.185 82.5669 214.568C82.2216 214.941 82.0489 215.469 82.0489 216.15V220H80.6769V212.902H82.0489V214.12C82.4689 213.243 83.2063 212.804 84.2609 212.804C84.9609 212.804 85.5163 213.019 85.9269 213.448C86.3376 213.877 86.5429 214.461 86.5429 215.198V220ZM93.6799 219.622C93.1572 219.921 92.4665 220.07 91.6079 220.07C90.5065 220.07 89.6292 219.739 88.9759 219.076C88.3225 218.413 87.9959 217.545 87.9959 216.472C87.9959 215.333 88.2945 214.442 88.8919 213.798C89.4892 213.145 90.2499 212.818 91.1739 212.818C92.0792 212.818 92.7979 213.103 93.3299 213.672C93.8619 214.232 94.1279 215.044 94.1279 216.108C94.1279 216.397 94.0999 216.701 94.0439 217.018H89.3819C89.4752 217.634 89.7365 218.105 90.1659 218.432C90.5952 218.759 91.1365 218.922 91.7899 218.922C92.5459 218.922 93.1759 218.745 93.6799 218.39V219.622ZM91.2019 213.952C90.7352 213.952 90.3339 214.125 89.9979 214.47C89.6619 214.806 89.4519 215.296 89.3679 215.94H92.7979V215.688C92.7792 215.156 92.6345 214.736 92.3639 214.428C92.0932 214.111 91.7059 213.952 91.2019 213.952ZM101.035 219.622C100.513 219.921 99.822 220.07 98.9633 220.07C97.862 220.07 96.9847 219.739 96.3313 219.076C95.678 218.413 95.3513 217.545 95.3513 216.472C95.3513 215.333 95.65 214.442 96.2473 213.798C96.8447 213.145 97.6053 212.818 98.5293 212.818C99.4347 212.818 100.153 213.103 100.685 213.672C101.217 214.232 101.483 215.044 101.483 216.108C101.483 216.397 101.455 216.701 101.399 217.018H96.7373C96.8307 217.634 97.092 218.105 97.5213 218.432C97.9507 218.759 98.492 218.922 99.1453 218.922C99.9013 218.922 100.531 218.745 101.035 218.39V219.622ZM98.5573 213.952C98.0907 213.952 97.6893 214.125 97.3533 214.47C97.0173 214.806 96.8073 215.296 96.7233 215.94H100.153V215.688C100.135 215.156 99.99 214.736 99.7193 214.428C99.4487 214.111 99.0613 213.952 98.5573 213.952ZM104.121 216.514C104.121 217.223 104.293 217.797 104.639 218.236C104.993 218.675 105.437 218.894 105.969 218.894C106.51 218.894 106.967 218.689 107.341 218.278C107.714 217.867 107.901 217.242 107.901 216.402C107.901 215.59 107.705 214.988 107.313 214.596C106.93 214.204 106.496 214.008 106.011 214.008C105.46 214.008 105.007 214.227 104.653 214.666C104.298 215.095 104.121 215.711 104.121 216.514ZM109.287 220H107.901V218.922C107.406 219.706 106.683 220.098 105.731 220.098C104.797 220.098 104.06 219.748 103.519 219.048C102.977 218.339 102.707 217.485 102.707 216.486C102.707 215.375 102.991 214.484 103.561 213.812C104.13 213.14 104.863 212.804 105.759 212.804C106.683 212.804 107.397 213.196 107.901 213.98V210.102H109.287V220ZM118.011 219.804C117.33 221.624 116.289 222.534 114.889 222.534C114.637 222.534 114.423 222.511 114.245 222.464V221.288C114.395 221.325 114.553 221.344 114.721 221.344C115.627 221.344 116.261 220.845 116.625 219.846L113.797 212.902H115.323L116.205 215.212L117.311 218.208C117.395 217.928 117.731 216.929 118.319 215.212L119.117 212.902H120.573L118.011 219.804ZM127.194 213.84C127.782 214.521 128.076 215.394 128.076 216.458C128.076 217.522 127.773 218.399 127.166 219.09C126.569 219.781 125.743 220.126 124.688 220.126C123.643 220.126 122.821 219.785 122.224 219.104C121.627 218.423 121.328 217.559 121.328 216.514C121.328 215.45 121.636 214.568 122.252 213.868C122.868 213.159 123.68 212.804 124.688 212.804C125.771 212.804 126.606 213.149 127.194 213.84ZM122.756 216.472C122.756 217.172 122.929 217.765 123.274 218.25C123.619 218.726 124.091 218.964 124.688 218.964C125.323 218.964 125.803 218.731 126.13 218.264C126.466 217.797 126.634 217.205 126.634 216.486C126.634 215.749 126.475 215.147 126.158 214.68C125.841 214.204 125.346 213.966 124.674 213.966C124.067 213.966 123.596 214.209 123.26 214.694C122.924 215.17 122.756 215.763 122.756 216.472ZM135.404 220H134.032V218.782C133.659 219.65 132.922 220.084 131.82 220.084C131.12 220.084 130.565 219.879 130.154 219.468C129.744 219.048 129.538 218.474 129.538 217.746V212.902H130.924V217.41C130.924 217.895 131.041 218.269 131.274 218.53C131.517 218.782 131.848 218.908 132.268 218.908C132.8 218.908 133.225 218.721 133.542 218.348C133.869 217.975 134.032 217.447 134.032 216.766V212.902H135.404V220ZM138.705 220H137.333V212.902H138.705V214.148C139.051 213.271 139.671 212.832 140.567 212.832C140.698 212.832 140.843 212.846 141.001 212.874V214.218C140.805 214.134 140.586 214.092 140.343 214.092C139.867 214.092 139.475 214.302 139.167 214.722C138.859 215.142 138.705 215.641 138.705 216.22V220ZM150.815 219.622C150.292 219.921 149.601 220.07 148.743 220.07C147.641 220.07 146.764 219.739 146.111 219.076C145.457 218.413 145.131 217.545 145.131 216.472C145.131 215.333 145.429 214.442 146.027 213.798C146.624 213.145 147.385 212.818 148.309 212.818C149.214 212.818 149.933 213.103 150.465 213.672C150.997 214.232 151.263 215.044 151.263 216.108C151.263 216.397 151.235 216.701 151.179 217.018H146.517C146.61 217.634 146.871 218.105 147.301 218.432C147.73 218.759 148.271 218.922 148.925 218.922C149.681 218.922 150.311 218.745 150.815 218.39V219.622ZM148.337 213.952C147.87 213.952 147.469 214.125 147.133 214.47C146.797 214.806 146.587 215.296 146.503 215.94H149.933V215.688C149.914 215.156 149.769 214.736 149.499 214.428C149.228 214.111 148.841 213.952 148.337 213.952ZM162.636 220H161.264V215.52C161.264 214.503 160.853 213.994 160.032 213.994C159.621 213.994 159.253 214.176 158.926 214.54C158.609 214.904 158.45 215.441 158.45 216.15V220H157.078V215.52C157.078 214.503 156.663 213.994 155.832 213.994C155.431 213.994 155.067 214.176 154.74 214.54C154.413 214.904 154.25 215.441 154.25 216.15V220H152.878V212.902H154.25V214.036C154.651 213.215 155.319 212.804 156.252 212.804C157.316 212.804 157.997 213.261 158.296 214.176C158.492 213.737 158.777 213.401 159.15 213.168C159.523 212.925 159.943 212.804 160.41 212.804C161.138 212.804 161.689 213.019 162.062 213.448C162.445 213.877 162.636 214.47 162.636 215.226V220ZM166.795 218.978C167.243 218.978 167.593 218.857 167.845 218.614C168.107 218.362 168.237 218.035 168.237 217.634V216.836H167.173C166.651 216.836 166.254 216.939 165.983 217.144C165.722 217.349 165.591 217.611 165.591 217.928C165.591 218.255 165.694 218.511 165.899 218.698C166.105 218.885 166.403 218.978 166.795 218.978ZM168.279 219.16C167.915 219.757 167.276 220.056 166.361 220.056C165.689 220.056 165.148 219.865 164.737 219.482C164.336 219.09 164.135 218.595 164.135 217.998C164.135 217.317 164.392 216.789 164.905 216.416C165.419 216.033 166.137 215.842 167.061 215.842H168.237V215.436C168.237 214.951 168.121 214.587 167.887 214.344C167.654 214.092 167.267 213.966 166.725 213.966C165.969 213.966 165.283 214.176 164.667 214.596V213.266C165.218 212.949 165.946 212.79 166.851 212.79C168.709 212.79 169.637 213.691 169.637 215.492V220H168.279V219.16ZM172.928 220H171.542V212.902H172.928V220ZM173.096 210.732C173.096 210.965 173.012 211.166 172.844 211.334C172.676 211.502 172.47 211.586 172.228 211.586C171.985 211.586 171.78 211.507 171.612 211.348C171.453 211.18 171.374 210.975 171.374 210.732C171.374 210.489 171.453 210.284 171.612 210.116C171.78 209.948 171.985 209.864 172.228 209.864C172.47 209.864 172.676 209.948 172.844 210.116C173.012 210.284 173.096 210.489 173.096 210.732ZM176.359 220H174.973V210.102H176.359V220ZM185.518 219.818C185.21 219.986 184.832 220.07 184.384 220.07C182.919 220.07 182.186 219.328 182.186 217.844V213.966H181.08V212.902H182.186V211.166H183.572V212.902H185.434V213.966H183.572V217.872C183.572 218.553 183.899 218.894 184.552 218.894C184.935 218.894 185.257 218.791 185.518 218.586V219.818ZM192.504 213.84C193.092 214.521 193.386 215.394 193.386 216.458C193.386 217.522 193.083 218.399 192.476 219.09C191.879 219.781 191.053 220.126 189.998 220.126C188.953 220.126 188.132 219.785 187.534 219.104C186.937 218.423 186.638 217.559 186.638 216.514C186.638 215.45 186.946 214.568 187.562 213.868C188.178 213.159 188.99 212.804 189.998 212.804C191.081 212.804 191.916 213.149 192.504 213.84ZM188.066 216.472C188.066 217.172 188.239 217.765 188.584 218.25C188.93 218.726 189.401 218.964 189.998 218.964C190.633 218.964 191.114 218.731 191.44 218.264C191.776 217.797 191.944 217.205 191.944 216.486C191.944 215.749 191.786 215.147 191.468 214.68C191.151 214.204 190.656 213.966 189.984 213.966C189.378 213.966 188.906 214.209 188.57 214.694C188.234 215.17 188.066 215.763 188.066 216.472ZM204.356 219.398C204.356 220.49 204.043 221.311 203.418 221.862C202.802 222.422 202.009 222.702 201.038 222.702C200.123 222.702 199.353 222.548 198.728 222.24V220.854C199.325 221.246 200.049 221.442 200.898 221.442C202.289 221.442 202.984 220.756 202.984 219.384V218.656C202.527 219.421 201.841 219.804 200.926 219.804C200.123 219.804 199.437 219.51 198.868 218.922C198.299 218.325 198.014 217.485 198.014 216.402C198.014 215.357 198.28 214.498 198.812 213.826C199.344 213.145 200.049 212.804 200.926 212.804C201.869 212.804 202.555 213.205 202.984 214.008V212.902H204.356V219.398ZM199.456 216.374C199.456 217.111 199.624 217.671 199.96 218.054C200.305 218.437 200.711 218.628 201.178 218.628C201.663 218.628 202.083 218.441 202.438 218.068C202.802 217.685 202.984 217.153 202.984 216.472C202.984 215.632 202.811 215.011 202.466 214.61C202.13 214.209 201.719 214.008 201.234 214.008C200.683 214.008 200.249 214.227 199.932 214.666C199.615 215.095 199.456 215.665 199.456 216.374ZM211.49 219.622C210.968 219.921 210.277 220.07 209.418 220.07C208.317 220.07 207.44 219.739 206.786 219.076C206.133 218.413 205.806 217.545 205.806 216.472C205.806 215.333 206.105 214.442 206.702 213.798C207.3 213.145 208.06 212.818 208.984 212.818C209.89 212.818 210.608 213.103 211.14 213.672C211.672 214.232 211.938 215.044 211.938 216.108C211.938 216.397 211.91 216.701 211.854 217.018H207.192C207.286 217.634 207.547 218.105 207.976 218.432C208.406 218.759 208.947 218.922 209.6 218.922C210.356 218.922 210.986 218.745 211.49 218.39V219.622ZM209.012 213.952C208.546 213.952 208.144 214.125 207.808 214.47C207.472 214.806 207.262 215.296 207.178 215.94H210.608V215.688C210.59 215.156 210.445 214.736 210.174 214.428C209.904 214.111 209.516 213.952 209.012 213.952ZM217.278 219.818C216.97 219.986 216.592 220.07 216.144 220.07C214.679 220.07 213.946 219.328 213.946 217.844V213.966H212.84V212.902H213.946V211.166H215.332V212.902H217.194V213.966H215.332V217.872C215.332 218.553 215.659 218.894 216.312 218.894C216.695 218.894 217.017 218.791 217.278 218.586V219.818ZM225.582 219.804C224.9 221.624 223.86 222.534 222.46 222.534C222.208 222.534 221.993 222.511 221.816 222.464V221.288C221.965 221.325 222.124 221.344 222.292 221.344C223.197 221.344 223.832 220.845 224.196 219.846L221.368 212.902H222.894L223.776 215.212L224.882 218.208C224.966 217.928 225.302 216.929 225.89 215.212L226.688 212.902H228.144L225.582 219.804ZM234.764 213.84C235.352 214.521 235.646 215.394 235.646 216.458C235.646 217.522 235.343 218.399 234.736 219.09C234.139 219.781 233.313 220.126 232.258 220.126C231.213 220.126 230.392 219.785 229.794 219.104C229.197 218.423 228.898 217.559 228.898 216.514C228.898 215.45 229.206 214.568 229.822 213.868C230.438 213.159 231.25 212.804 232.258 212.804C233.341 212.804 234.176 213.149 234.764 213.84ZM230.326 216.472C230.326 217.172 230.499 217.765 230.844 218.25C231.19 218.726 231.661 218.964 232.258 218.964C232.893 218.964 233.374 218.731 233.7 218.264C234.036 217.797 234.204 217.205 234.204 216.486C234.204 215.749 234.046 215.147 233.728 214.68C233.411 214.204 232.916 213.966 232.244 213.966C231.638 213.966 231.166 214.209 230.83 214.694C230.494 215.17 230.326 215.763 230.326 216.472ZM242.975 220H241.603V218.782C241.229 219.65 240.492 220.084 239.391 220.084C238.691 220.084 238.135 219.879 237.725 219.468C237.314 219.048 237.109 218.474 237.109 217.746V212.902H238.495V217.41C238.495 217.895 238.611 218.269 238.845 218.53C239.087 218.782 239.419 218.908 239.839 218.908C240.371 218.908 240.795 218.721 241.113 218.348C241.439 217.975 241.603 217.447 241.603 216.766V212.902H242.975V220ZM249.763 220H248.377V210.102H249.763V213.98C250.267 213.196 250.981 212.804 251.905 212.804C252.801 212.804 253.533 213.14 254.103 213.812C254.672 214.484 254.957 215.375 254.957 216.486C254.957 217.485 254.686 218.339 254.145 219.048C253.603 219.748 252.861 220.098 251.919 220.098C250.976 220.098 250.257 219.706 249.763 218.922V220ZM249.763 216.402C249.763 217.242 249.949 217.867 250.323 218.278C250.696 218.689 251.153 218.894 251.695 218.894C252.217 218.894 252.656 218.675 253.011 218.236C253.365 217.788 253.543 217.214 253.543 216.514C253.543 215.711 253.365 215.095 253.011 214.666C252.656 214.227 252.203 214.008 251.653 214.008C251.167 214.008 250.729 214.204 250.337 214.596C249.954 214.988 249.763 215.59 249.763 216.402ZM258.793 218.978C259.241 218.978 259.591 218.857 259.843 218.614C260.105 218.362 260.235 218.035 260.235 217.634V216.836H259.171C258.649 216.836 258.252 216.939 257.981 217.144C257.72 217.349 257.589 217.611 257.589 217.928C257.589 218.255 257.692 218.511 257.897 218.698C258.103 218.885 258.401 218.978 258.793 218.978ZM260.277 219.16C259.913 219.757 259.274 220.056 258.359 220.056C257.687 220.056 257.146 219.865 256.735 219.482C256.334 219.09 256.133 218.595 256.133 217.998C256.133 217.317 256.39 216.789 256.903 216.416C257.417 216.033 258.135 215.842 259.059 215.842H260.235V215.436C260.235 214.951 260.119 214.587 259.885 214.344C259.652 214.092 259.265 213.966 258.723 213.966C257.967 213.966 257.281 214.176 256.665 214.596V213.266C257.216 212.949 257.944 212.79 258.849 212.79C260.707 212.79 261.635 213.691 261.635 215.492V220H260.277V219.16ZM268.496 219.72C268.038 220 267.455 220.14 266.746 220.14C265.635 220.14 264.748 219.79 264.086 219.09C263.423 218.39 263.092 217.517 263.092 216.472C263.092 215.455 263.423 214.587 264.086 213.868C264.758 213.14 265.663 212.776 266.802 212.776C267.418 212.776 267.982 212.907 268.496 213.168V214.428C268.038 214.139 267.52 213.994 266.942 213.994C266.204 213.994 265.612 214.227 265.164 214.694C264.725 215.161 264.506 215.758 264.506 216.486C264.524 217.205 264.744 217.797 265.164 218.264C265.584 218.721 266.172 218.95 266.928 218.95C267.488 218.95 268.01 218.796 268.496 218.488V219.72ZM271.445 220H270.073V210.2H271.445V220ZM273.083 216.29L275.869 220H274.231L271.501 216.29L274.175 212.902H275.785L273.083 216.29ZM281.961 220H280.575V212.902H281.961V220ZM282.129 210.732C282.129 210.965 282.045 211.166 281.877 211.334C281.709 211.502 281.503 211.586 281.261 211.586C281.018 211.586 280.813 211.507 280.645 211.348C280.486 211.18 280.407 210.975 280.407 210.732C280.407 210.489 280.486 210.284 280.645 210.116C280.813 209.948 281.018 209.864 281.261 209.864C281.503 209.864 281.709 209.948 281.877 210.116C282.045 210.284 282.129 210.489 282.129 210.732ZM289.816 220H288.444V215.52C288.444 215.025 288.318 214.647 288.066 214.386C287.824 214.125 287.497 213.994 287.086 213.994C286.601 213.994 286.186 214.185 285.84 214.568C285.495 214.941 285.322 215.469 285.322 216.15V220H283.95V212.902H285.322V214.12C285.742 213.243 286.48 212.804 287.534 212.804C288.234 212.804 288.79 213.019 289.2 213.448C289.611 213.877 289.816 214.461 289.816 215.198V220ZM292.711 218.502C292.898 218.679 292.991 218.899 292.991 219.16C292.991 219.421 292.898 219.645 292.711 219.832C292.534 220.019 292.315 220.112 292.053 220.112C291.783 220.112 291.554 220.019 291.367 219.832C291.19 219.645 291.101 219.421 291.101 219.16C291.101 218.899 291.19 218.679 291.367 218.502C291.554 218.315 291.783 218.222 292.053 218.222C292.315 218.222 292.534 218.315 292.711 218.502Z" fill="#35495E"/>
<path fill-rule="evenodd" clip-rule="evenodd" d="M309 133C311.387 133 313.676 132.052 315.364 130.364C317.052 128.676 318 126.387 318 124C318 121.613 317.052 119.324 315.364 117.636C313.676 115.948 311.387 115 309 115C306.613 115 304.324 115.948 302.636 117.636C300.948 119.324 300 121.613 300 124C300 126.387 300.948 128.676 302.636 130.364C304.324 132.052 306.613 133 309 133ZM314.872 124C314.872 125.557 314.254 127.051 313.152 128.152C312.051 129.254 310.557 129.872 309 129.872C307.443 129.872 305.949 129.254 304.848 128.152C303.746 127.051 303.127 125.557 303.127 124C303.127 122.443 303.746 120.949 304.848 119.848C305.949 118.746 307.443 118.127 309 118.127C310.557 118.127 312.051 118.746 313.152 119.848C314.254 120.949 314.872 122.443 314.872 124Z" fill="#41B883" fill-opacity="0.5"/>
<path fill-rule="evenodd" clip-rule="evenodd" d="M116 383C118.387 383 120.676 382.052 122.364 380.364C124.052 378.676 125 376.387 125 374C125 371.613 124.052 369.324 122.364 367.636C120.676 365.948 118.387 365 116 365C113.613 365 111.324 365.948 109.636 367.636C107.948 369.324 107 371.613 107 374C107 376.387 107.948 378.676 109.636 380.364C111.324 382.052 113.613 383 116 383V383ZM121.872 374C121.872 375.557 121.254 377.051 120.152 378.152C119.051 379.254 117.557 379.872 116 379.872C114.443 379.872 112.949 379.254 111.848 378.152C110.746 377.051 110.127 375.557 110.127 374C110.127 372.443 110.746 370.949 111.848 369.848C112.949 368.746 114.443 368.127 116 368.127C117.557 368.127 119.051 368.746 120.152 369.848C121.254 370.949 121.872 372.443 121.872 374V374Z" fill="#41B883" fill-opacity="0.5"/>
<path fill-rule="evenodd" clip-rule="evenodd" d="M291.636 500.269C294.023 500.269 296.312 499.32 298 497.633C299.688 495.945 300.636 493.656 300.636 491.269C300.636 488.882 299.688 486.593 298 484.905C296.312 483.217 294.023 482.269 291.636 482.269C289.249 482.269 286.96 483.217 285.272 484.905C283.584 486.593 282.636 488.882 282.636 491.269C282.636 493.656 283.584 495.945 285.272 497.633C286.96 499.32 289.249 500.269 291.636 500.269V500.269ZM297.509 491.269C297.509 492.826 296.89 494.32 295.789 495.421C294.687 496.522 293.194 497.141 291.636 497.141C290.079 497.141 288.585 496.522 287.484 495.421C286.382 494.32 285.764 492.826 285.764 491.269C285.764 489.711 286.382 488.217 287.484 487.116C288.585 486.015 290.079 485.396 291.636 485.396C293.194 485.396 294.687 486.015 295.789 487.116C296.89 488.217 297.509 489.711 297.509 491.269V491.269Z" fill="#41B883" fill-opacity="0.5"/>
</g>
<defs>
<clipPath id="clip0">
<rect width="375" height="667" fill="white"/>
</clipPath>
</defs>
</svg>
